<?xml version="1.0" encoding="UTF-8"?>
<svg width="200" height="200" version="1.1" viewBox="0 0 52.917 52.917" xmlns="http://www.w3.org/2000/svg">
 <g>
  <path d="m2.6511 52.723c-0.55848-0.17502-1.3326-0.68002-1.7216-1.1231-0.17304-0.19708-0.45298-0.6503-0.62208-1.0071l-0.30746-0.64881v-47.08l0.37382-0.75637c0.42538-0.86071 0.97424-1.4065 1.8438-1.8335l0.55703-0.27355h47.367l0.55703 0.27355c0.86957 0.42704 1.4184 0.97284 1.8438 1.8335l0.37382 0.75637v47.091l-0.37382 0.75637c-0.42538 0.86071-0.97424 1.4065-1.8438 1.8335l-0.55703 0.27355-23.535 0.01856c-19.353 0.015276-23.61-0.004913-23.956-0.1133zm13.055-20.269v-12.684h-7.9276v25.368h7.9276zm12.81 5.3264c0.04093-8.1792 0.03217-8.0637 0.7165-9.4544 0.44755-0.90955 1.177-1.5957 2.0477-1.9261 0.54191-0.20562 0.79867-0.23836 1.8691-0.23836 1.2062 0 1.2597 0.0092 1.9118 0.33037 1.1012 0.54226 1.6995 1.4924 2.007 3.1875 0.10563 0.58216 0.13559 2.3377 0.1383 8.101l0.0035 7.3578h7.9394l-0.03964-8.6956c-0.03832-8.4053-0.04678-8.7331-0.25346-9.8201-0.46875-2.4652-1.132-3.8982-2.3942-5.173-1.3962-1.4101-2.9893-2.0599-5.5953-2.2824-2.6799-0.2288-4.6016 0.24846-6.4447 1.6006-0.6358 0.46641-1.5353 1.4145-1.9249 2.0289l-0.30469 0.48045v-3.5071h-7.6303v25.368h7.9171zm-15.395-21.667c3.2665-1.0167 4.2719-5.1603 1.8416-7.5906-0.91507-0.91507-1.9256-1.3336-3.2199-1.3336-2.5839 0-4.5584 1.9684-4.5584 4.5444 0 2.0404 1.2412 3.7657 3.1474 4.3751 0.77215 0.24684 2.0046 0.24891 2.7892 0.0047z" fill="#fff"/>
 </g>
</svg>
