<svg xmlns="http://www.w3.org/2000/svg" width="400" height="400" viewbox="0 0 400 400"><path d="M57.943 243.091c-13.34 5.75-20.934 18.806-27.67 30.932-4.61 9.306-8.35 19.044-10.334 29.264-.239 1.229-1.912 10.036-.342 12.186 2.779 3.805 6.769 6.557 10.153 9.836 1.952-.182 3.971-.005 5.857-.547 6.778-1.934 13.67-6.668 19.087-10.7 15.97-11.889 28.754-26.026 42.068-40.695 24.636-29.646 48.284-60.096 73.78-89.027 17.42-19.77 20.574-22.642 38.43-41.165 17.752-18.371 36.945-35.173 56.56-51.482 5.743-1.996-2.052-4.146-.002-7.45l-.329-.345c-3.825.64-5.396-5.77-8.52-1.23-19.81 16.095-36.447 35.828-54.514 53.739-18.018 19.37-20.096 21.281-37.883 41.772-25.257 29.095-49.133 59.333-74.032 88.73-12.201 13.077-16.273 18.188-29.462 29.606-8.148 7.054-20.975 17.755-31.963 20.398-1.706.41-3.508.058-5.261.087 1.244 1.588 1.813 5.38 3.733 4.763 1.802-.58-1.522-3.536-1.686-5.421-.216-2.486.158-5.003.565-7.466 1.684-10.189 5.824-19.81 10.204-29.073 6.735-11.953 14.275-24.842 27.96-29.66l-6.398-7.051z"/><path d="M256.187 74.772c-9.013 25.239-15.768 51.236-22.89 77.057-9.92 35.384-18.87 71.022-27.892 106.64-3.641 13.538-6.617 27.279-10.626 40.718-.13.991-.8 1.857-.388 2.796l11.16 10.384c1.02-.402.688-1.622 1.06-2.579 2.663-14.073 6.23-27.973 9.22-41.977a2680.835 2680.835 0 0 1 27.036-107.353c6.972-25.647 13.75-51.463 23.575-76.204l-10.255-9.48z"/><path d="M200.212 277.788c-2.341-3.41-2.402-3.802-5.754-7.057-4.547-4.417-9.04-8.905-13.864-13.017-6.311-5.381-14.643-8.45-22.174-11.552-19.36-6.109-39.92-7.722-60.024-4.865-4.21.598-8.358 1.577-12.536 2.366-6.72 2.062-14.661 3.698-20.333 8.363-7.995 6.575-10.295 17.67-6.426 27.148 1.37 3.357 4.015 6.04 6.022 9.06 6.335 4.5 11.648 10.998 19.004 13.497 9.126 3.1 40.366-3.958 46.496-5.323 31.727-7.06 63.302-16.689 94.608-25.463 32.884-9.762 18.414-3.178 44.067-18.237l-.321-.351c-32.558 5.53-15.96 1.67-49.696 12.002-21.864 6.358-41.038 12.128-63.173 17.75-16.43 4.174-41.252 10.324-58.71 11.647-6.632.503-13.299-.936-19.944-.643-1.332.059-2.42 1.121-3.63 1.682-2.15-2.94-4.95-5.504-6.454-8.822-3.997-8.817-1.775-19.728 5.714-25.937 5.512-4.57 13.453-6.221 19.984-8.23 4.198-.716 8.366-1.638 12.593-2.148 20.273-2.45 40.982-.633 60.293 6.075 7.055 3.064 9.421 3.78 15.858 7.744 2.16 1.33 3.726 4.552 6.255 4.338 1.97-.167-3.388-2.614-3.81-4.545-.622-2.843 6.065 7.355 5.666 6.643l10.29 7.875z"/><path d="M288.75 93.805c-11.453 1.802-22.57 7.414-29.75 16.77-2.215 2.886-3.805 6.203-5.707 9.304-4.456 9.85-8.063 20.362-8.047 31.324.005 2.81.08 5.712.985 8.372 2.888 8.486 14.05 14.686 19.58 19.15 3.406.73 6.754 1.82 10.218 2.19 19.198 2.045 39.205-3.998 56.728-11.253 4.572-1.893 8.96-4.201 13.44-6.302 10.159-5.32 19.905-11.645 27.716-20.149 2.325-2.531 6.218-7.517 7.054-11.24.335-1.492-.153-3.056-.23-4.584-5.088-6.312-6.292-8.471-16.664-13.113-2.307-1.032-5.065-.187-7.583.04-10.981.986-21.22 4.876-31.494 8.57-11.73 4.714-22.765 10.658-32.082 19.328-10.668 9.928-18.345 22.027-26.093 34.209-11.377 20.402-22.463 41.723-27.918 64.621-.895 3.757-1.38 7.6-2.069 11.4-.66 10.799-.126 21.938 4.446 31.964 4.44 9.74 12.773 16.704 21.589 22.585 2.95 1.969 6.744 2.204 10.116 3.306 3.784.364 7.55 1.062 11.35 1.094 16.155.135 32.055-5.878 44.584-15.996 2.683-2.167 4.955-4.8 7.432-7.2 1.698-2.437 3.713-4.681 5.093-7.312 2.88-5.489 4.268-12.988 1.22-18.756-2.592-4.902-16.827-14.342-17.355-14.75-1.496-.455-13.723-1.035-14.23 1.026-.501 2.028 1.386 3.94 2.079 5.91l.328.346c2.115 1.153 4.013 2.861 6.347 3.46 1.252.32 2.496-.71 3.78-.865 4.402-.533 5.5-.085 9.915.521-1.473-2.347-3.799-4.34-4.419-7.041-.371-1.618 2.675 2.065 3.594 3.447 5.56 8.37-.132 18.325-5.228 25.124-2.39 2.385-4.569 5.003-7.172 7.155-12.256 10.13-28.019 15.818-43.95 15.377-3.76-.103-7.47-.903-11.204-1.355-3.278-1.185-6.355-3.356-9.835-3.554-1.048-.06 1.522 3.813.812 3.04-9.779-10.641-10.686-25.948-10.274-39.55.637-3.792 1.074-7.623 1.911-11.375 5.128-22.99 15.985-44.335 27.192-64.847 9.912-15.945 19.885-31.365 35.55-42.38 7.457-5.242 13.429-7.386 21.707-11.04 10.302-3.525 20.582-7.328 31.588-7.871 2.495-.123 5.967 2.318 7.485.335 1.408-1.838-3.073-3.995-2.913-6.305.096-1.385 2.108 1.809 3.162 2.713.144 1.318.687 2.652.43 3.952-.722 3.667-4.4 8.51-6.61 11.03-7.512 8.562-16.938 15.02-26.844 20.494-4.427 2.107-8.757 4.432-13.281 6.322-16.983 7.095-37.746 13.192-56.347 10.701-3.416-.457-6.685-1.683-10.027-2.525.2 1.17 1.559 4.206.6 3.508-9.913-7.22-6.04-26.111-2.964-35.558 1.174-3.607 2.873-7.02 4.31-10.53 1.866-3.024 3.416-6.268 5.6-9.072 7.2-9.25 18.327-14.629 29.84-15.532l-7.49-8.635z"/></svg>