<svg xmlns="http://www.w3.org/2000/svg" fill="#000" width="400" height="400"><g style="display:inline"><g style="fill-opacity:1;fill-rule:nonzero;stroke:none;display:inline"><path d="M108.24 236.07c-2.377 1.024-3.73 3.35-4.929 5.509-.821 1.658-1.487 3.392-1.84 5.212-.043.22-.341 1.788-.061 2.17.495.679 1.205 1.169 1.808 1.753.348-.033.707-.001 1.043-.098 1.207-.344 2.435-1.187 3.4-1.906 2.844-2.117 5.121-4.635 7.493-7.248 4.388-5.28 8.6-10.704 13.14-15.857 3.103-3.52 3.665-4.032 6.846-7.331 3.161-3.273 6.58-6.265 10.074-9.17 1.022-.356-.366-.739 0-1.327l-.06-.061c-.68.113-.96-1.028-1.517-.22-3.528 2.867-6.491 6.382-9.71 9.572-3.209 3.45-3.579 3.79-6.747 7.44-4.499 5.182-8.751 10.568-13.186 15.804-2.173 2.329-2.899 3.24-5.248 5.273-1.451 1.256-3.736 3.162-5.693 3.633-.304.073-.625.01-.937.016.222.282.323.958.665.848.32-.103-.271-.63-.3-.966-.039-.442.028-.89.1-1.33.3-1.814 1.038-3.528 1.818-5.178 1.2-2.129 2.542-4.424 4.98-5.283l-1.14-1.255z" transform="translate(-406.457 -868.435) scale(4.54127)"/><path d="M143.548 206.087c-1.605 4.495-2.808 9.126-4.077 13.724-1.767 6.303-3.36 12.65-4.968 18.994-.648 2.411-1.178 4.859-1.892 7.253-.023.176-.142.33-.07.498l1.988 1.85c.182-.073.123-.29.19-.46.474-2.507 1.11-4.983 1.642-7.477a477.714 477.714 0 0 1 4.815-19.121c1.242-4.568 2.45-9.166 4.199-13.573l-1.827-1.688z" transform="translate(-406.457 -868.435) scale(4.54127)"/><path d="M133.584 242.248c-.417-.607-.428-.677-1.025-1.257-.81-.786-1.61-1.586-2.47-2.318-1.123-.959-2.607-1.505-3.949-2.058a24.234 24.234 0 0 0-10.69-.866c-.75.106-1.49.28-2.234.421-1.196.367-2.61.659-3.621 1.49-1.424 1.17-1.834 3.147-1.145 4.835.244.598.715 1.076 1.073 1.614 1.128.801 2.074 1.959 3.385 2.404 1.625.552 7.19-.705 8.281-.948 5.651-1.258 11.276-2.973 16.851-4.535 5.857-1.74 3.28-.567 7.849-3.249l-.057-.062c-5.8.985-2.843.297-8.852 2.138-3.894 1.132-7.31 2.16-11.251 3.161-2.927.744-7.348 1.839-10.457 2.075-1.182.09-2.369-.167-3.553-.115-.237.01-.43.2-.646.3-.383-.524-.882-.98-1.15-1.572-.712-1.57-.316-3.514 1.018-4.62.982-.813 2.396-1.107 3.56-1.465.747-.128 1.49-.292 2.242-.383 3.611-.436 7.3-.113 10.739 1.082 1.257.546 1.678.673 2.824 1.38.385.236.664.81 1.115.772.35-.03-.604-.465-.679-.81-.11-.506 1.08 1.31 1.01 1.184l1.832 1.402z" transform="translate(-406.457 -868.435) scale(4.54127)"/><path d="M149.35 209.484c-2.04.321-4.02 1.32-5.299 2.987-.394.514-.677 1.105-1.016 1.658-.794 1.754-1.436 3.626-1.433 5.579 0 .5.014 1.017.175 1.49.514 1.512 2.503 2.617 3.487 3.412.607.13 1.203.324 1.82.39 3.42.364 6.983-.712 10.104-2.004.814-.338 1.596-.749 2.394-1.123 1.81-.947 3.545-2.074 4.937-3.589.414-.45 1.107-1.338 1.256-2.002.06-.265-.027-.544-.041-.816-.906-1.124-1.12-1.509-2.968-2.336-.411-.184-.902-.033-1.35.007-1.957.176-3.78.869-5.61 1.527-2.09.84-4.055 1.898-5.714 3.442-1.9 1.769-3.268 3.924-4.648 6.093-2.026 3.634-4.001 7.432-4.972 11.51-.16.67-.246 1.354-.369 2.031-.118 1.923-.022 3.907.792 5.693.79 1.735 2.275 2.975 3.845 4.023.526.35 1.201.393 1.802.589.674.065 1.345.19 2.022.195 2.877.024 5.709-1.047 7.94-2.85.478-.385.883-.854 1.324-1.282.303-.434.662-.834.908-1.302.512-.978.76-2.313.217-3.34-.462-.874-2.997-2.555-3.091-2.628-.267-.08-2.445-.184-2.535.183-.09.361.247.702.37 1.052l.059.062c.377.205.714.51 1.13.616.223.058.445-.126.673-.154.785-.095.98-.015 1.767.093-.263-.418-.677-.773-.788-1.254-.066-.288.477.368.64.614.991 1.49-.023 3.264-.93 4.475-.426.425-.814.891-1.278 1.274-2.183 1.804-4.99 2.818-7.828 2.74-.67-.02-1.33-.162-1.996-.242-.584-.211-1.132-.598-1.752-.633-.186-.01.272.679.145.541-1.742-1.895-1.903-4.621-1.83-7.044.114-.676.191-1.358.34-2.026.914-4.095 2.848-7.897 4.844-11.55 1.765-2.84 3.542-5.587 6.332-7.549 1.328-.933 2.392-1.315 3.866-1.966 1.835-.628 3.666-1.305 5.626-1.402.445-.022 1.063.413 1.334.06.25-.328-.548-.712-.52-1.123.018-.247.376.322.564.483.025.234.122.472.076.704-.128.653-.783 1.515-1.177 1.964-1.338 1.525-3.017 2.675-4.781 3.65-.789.376-1.56.79-2.366 1.127-3.025 1.263-6.723 2.35-10.035 1.906-.609-.082-1.191-.3-1.787-.45.036.208.278.749.107.625-1.765-1.286-1.075-4.651-.528-6.334.21-.642.512-1.25.768-1.875.332-.539.608-1.117.997-1.616 1.283-1.648 3.265-2.606 5.315-2.766l-1.334-1.539z" transform="translate(-406.457 -868.435) scale(4.54127)"/></g><g aria-label="ALVARO CAPELLAN"><path d="M81.156 309.758q.031.093.031.247 0 .279-.185.433-.186.155-.464.155-.216 0-.402-.093-.155-.124-.216-.31l-2.598-6.37.031.063H66.994l-2.505 6.308q-.154.402-.556.402-.278 0-.464-.155-.155-.155-.186-.371-.03-.124.031-.31l8.318-20.47q.093-.247.217-.309.155-.093.371-.093.464 0 .618.402zm-13.667-7.112h9.37l-4.732-11.658ZM97.329 309.356q.247 0 .433.185.185.186.185.433 0 .279-.185.464-.186.155-.433.155H85.98q-.278 0-.464-.186-.154-.185-.154-.433v-20.408q0-.248.185-.433.186-.186.464-.186t.464.186q.186.185.186.433v19.79zM115.573 288.947q.278 0 .433.155.185.154.185.402 0 .124-.062.31l-8.472 20.377q-.186.402-.588.402-.186 0-.371-.093-.155-.124-.216-.31l-8.411-20.284q-.093-.186-.093-.371 0-.248.155-.402.185-.186.432-.186.464 0 .68.495l7.855 18.893 7.885-18.986q.217-.402.588-.402zM135.177 309.758q.031.093.031.247 0 .279-.185.433-.186.155-.464.155-.217 0-.402-.093-.155-.124-.217-.31l-2.597-6.37.03.063h-10.358l-2.505 6.308q-.154.402-.556.402-.279 0-.464-.155-.155-.155-.186-.371-.03-.124.031-.31l8.318-20.47q.093-.247.217-.309.154-.093.37-.093.465 0 .62.402zm-13.667-7.112h9.37l-4.732-11.658zM154.782 309.387q.34.216.34.556 0 .279-.186.464-.154.155-.402.155-.185 0-.278-.062-.835-.464-1.33-1.546-.494-1.113-.494-3.618 0-2.536-1.36-3.463-1.361-.959-3.155-.959h-7.236v9.06q0 .248-.185.433-.186.186-.464.186t-.464-.186q-.185-.185-.185-.433v-20.408q0-.248.185-.433.186-.186.433-.186h8.163q1.794 0 3.185.742 1.392.712 2.165 1.98.773 1.267.773 2.875 0 2.072-1.113 3.556-1.082 1.485-2.845 2.01 1.484.464 2.443 1.856.958 1.36.958 3.37 0 2.072.248 2.907.278.804.804 1.144zm-6.463-9.71q1.948-.185 3.309-1.546 1.36-1.36 1.36-3.556 0-1.917-1.36-3.154-1.36-1.237-3.618-1.237h-7.329v9.493zM178.715 299.77q0 3.247-1.33 5.782-1.298 2.536-3.648 3.958-2.35 1.392-5.35 1.392-2.999 0-5.349-1.392-2.35-1.422-3.68-3.958-1.298-2.535-1.298-5.782t1.298-5.782q1.33-2.536 3.68-3.928 2.35-1.422 5.35-1.422 2.999 0 5.349 1.422 2.35 1.392 3.649 3.928 1.33 2.535 1.33 5.782zm-1.298 0q0-2.907-1.144-5.164-1.144-2.257-3.216-3.494-2.041-1.237-4.67-1.237-2.628 0-4.7 1.237-2.04 1.237-3.185 3.494-1.144 2.257-1.144 5.164 0 2.907 1.144 5.164 1.144 2.257 3.185 3.494 2.072 1.237 4.7 1.237 2.629 0 4.67-1.237 2.072-1.237 3.216-3.494 1.144-2.257 1.144-5.164zM207.72 290.74q.279.217.279.496 0 .247-.124.401-.186.248-.464.248-.124 0-.37-.124-2.877-1.948-6.093-1.948-2.597 0-4.793 1.299-2.164 1.268-3.432 3.556-1.268 2.257-1.268 5.102t1.268 5.133q1.268 2.257 3.432 3.556 2.196 1.268 4.793 1.268 3.247 0 6.061-1.917.155-.124.371-.124.31 0 .495.247.124.155.124.372 0 .309-.248.494-1.206.866-3.123 1.485-1.886.618-3.68.618-2.937 0-5.411-1.453-2.474-1.454-3.927-3.99-1.453-2.566-1.453-5.689t1.453-5.659q1.453-2.566 3.927-4.02 2.474-1.453 5.411-1.453 1.856 0 3.587.557 1.763.556 3.185 1.546zM228.036 309.758q.031.093.031.247 0 .279-.185.433-.186.155-.464.155-.217 0-.402-.093-.155-.124-.217-.31l-2.597-6.37.03.063h-10.358l-2.505 6.308q-.155.402-.557.402-.278 0-.463-.155-.155-.155-.186-.371-.03-.124.031-.31l8.318-20.47q.093-.247.217-.309.154-.093.37-.093.464 0 .619.402zm-13.667-7.112h9.369l-4.731-11.658zM240.281 288.947q2.629 0 4.237 1.64 1.608 1.638 1.608 4.266 0 1.732-.743 3.154-.71 1.392-2.04 2.196-1.33.773-3.062.773h-6.74v8.998q0 .248-.217.433-.186.186-.433.186-.278 0-.464-.186-.186-.185-.186-.433v-20.408q0-.248.186-.433.186-.186.433-.186zm0 10.792q2.072 0 3.309-1.36 1.237-1.392 1.237-3.526 0-2.133-1.237-3.401-1.206-1.268-3.309-1.268h-6.74v9.555zM262.885 309.356q.248 0 .433.185.186.186.186.433 0 .279-.186.464-.185.155-.433.155h-11.657q-.248 0-.433-.186-.186-.185-.186-.433v-20.408q0-.248.186-.433.185-.186.433-.186h11.657q.248 0 .433.186.186.185.186.433 0 .278-.186.464-.185.154-.433.154h-10.977v8.627h9.586q.247 0 .433.186.185.185.185.433 0 .278-.185.464-.186.154-.433.154h-9.586v9.308zM280.109 309.356q.247 0 .433.185.185.186.185.433 0 .279-.185.464-.186.155-.433.155H268.76q-.278 0-.463-.186-.155-.185-.155-.433v-20.408q0-.248.186-.433.185-.186.463-.186.279 0 .464.186.186.185.186.433v19.79zM296.25 309.356q.248 0 .433.185.186.186.186.433 0 .279-.186.464-.185.155-.433.155h-11.348q-.279 0-.464-.186-.155-.185-.155-.433v-20.408q0-.248.186-.433.185-.186.464-.186.278 0 .464.186.185.185.185.433v19.79zM316.288 309.758q.03.093.03.247 0 .279-.185.433-.185.155-.464.155-.216 0-.402-.093-.154-.124-.216-.31l-2.598-6.37.031.063h-10.359l-2.504 6.308q-.155.402-.557.402-.278 0-.464-.155-.154-.155-.185-.371-.031-.124.03-.31l8.319-20.47q.092-.247.216-.309.155-.093.371-.093.464 0 .619.402zm-13.668-7.112h9.37l-4.732-11.658zM336.14 288.947q.278 0 .433.186.154.154.154.402v20.377q0 .34-.185.526-.186.155-.464.155-.31 0-.495-.248l-13.915-19.017v18.74q0 .216-.185.37-.155.155-.402.155-.279 0-.433-.155-.155-.154-.155-.37v-20.502q0-.31.155-.464.185-.155.402-.155.278 0 .463.217l14.04 19.14v-18.77q0-.247.154-.401.185-.186.433-.186z"/></g><g aria-label="BUSINESS COACHING"><path d="M121.914 324.76q1.106.208 1.763 1.003.674.794.674 2.056 0 1.572-1.003 2.419-.985.847-2.522.847h-4.77q-.138 0-.242-.104-.103-.104-.103-.242v-11.404q0-.139.103-.242.104-.104.242-.104h4.649q1.382 0 2.211.795.83.795.83 2.143 0 .967-.484 1.762-.484.778-1.348 1.071zm1.106-2.85q0-1.02-.64-1.625-.621-.605-1.762-.605h-4.181v4.856h4.181q1.071-.018 1.728-.691.674-.692.674-1.936zm-2.28 8.484q1.295 0 2.09-.64.795-.656.795-1.935t-.795-1.918q-.795-.657-2.09-.657h-4.303v5.15zM135.496 318.989q.155 0 .242.104.103.103.103.242v7.464q0 1.21-.604 2.23-.605 1.019-1.625 1.624-1.02.604-2.211.604-1.21 0-2.23-.604-1.019-.605-1.624-1.625-.605-1.02-.605-2.229v-7.464q0-.156.104-.242.104-.104.26-.104.155 0 .259.104.103.103.103.242v7.464q0 1.02.501 1.884.501.864 1.348 1.382.864.501 1.884.501 1.019 0 1.866-.5.864-.52 1.365-1.383.518-.864.518-1.884v-7.464q0-.139.087-.242.103-.104.259-.104zM142.217 331.257q-1.278 0-2.229-.432-.95-.449-1.883-1.382-.104-.104-.104-.26 0-.137.121-.258.121-.138.26-.138.155 0 .293.155.674.795 1.59 1.21.933.414 1.952.414 1.331 0 2.195-.639.864-.64.864-1.693-.017-.83-.45-1.366-.431-.535-1.07-.846-.623-.329-1.711-.726-1.193-.45-1.866-.795-.657-.345-1.14-.985-.467-.64-.467-1.676 0-.847.466-1.538.467-.69 1.33-1.088.865-.398 2.005-.398 1.02 0 1.935.38.916.363 1.452 1.037.173.242.173.363 0 .138-.139.26-.12.103-.276.103-.138 0-.225-.104-.484-.622-1.244-.985t-1.676-.363q-1.313 0-2.194.622-.864.623-.864 1.694 0 .743.414 1.261.432.519 1.072.847.639.311 1.59.657 1.209.432 1.917.794.709.363 1.21 1.055.501.69.501 1.831 0 .795-.467 1.486-.466.691-1.347 1.106-.864.397-1.988.397zM149.354 330.722q-.017.155-.121.259-.104.104-.242.104-.173 0-.276-.104-.087-.104-.087-.26v-11.37q0-.155.104-.258.104-.104.259-.104.156 0 .26.104.103.103.103.259zM161.553 318.989q.156 0 .242.104.087.086.087.224v11.388q0 .19-.104.293-.104.087-.26.087-.172 0-.276-.139l-7.776-10.626v10.47q0 .122-.103.208-.087.087-.225.087-.155 0-.242-.087-.086-.086-.086-.207v-11.456q0-.173.086-.26.104-.086.225-.086.155 0 .259.121l7.845 10.696v-10.489q0-.138.086-.224.104-.104.242-.104zM172.197 330.394q.139 0 .242.103.104.104.104.242 0 .156-.104.26-.103.086-.242.086h-6.514q-.138 0-.242-.104-.104-.104-.104-.242v-11.404q0-.139.104-.242.104-.104.242-.104h6.514q.139 0 .242.104.104.103.104.242 0 .155-.104.259-.103.086-.242.086h-6.134v4.821h5.357q.138 0 .242.104.103.104.103.242 0 .155-.103.259-.104.086-.242.086h-5.357v5.202zM178.228 331.257q-1.279 0-2.23-.432-.95-.449-1.883-1.382-.103-.104-.103-.26 0-.137.12-.258.122-.138.26-.138.155 0 .294.155.673.795 1.59 1.21.932.414 1.952.414 1.33 0 2.194-.639.864-.64.864-1.693-.017-.83-.449-1.366-.432-.535-1.071-.846-.622-.329-1.71-.726-1.193-.45-1.867-.795-.657-.345-1.14-.985-.467-.64-.467-1.676 0-.847.466-1.538.467-.69 1.331-1.088.864-.398 2.004-.398 1.02 0 1.936.38.916.363 1.451 1.037.173.242.173.363 0 .138-.138.26-.121.103-.277.103-.138 0-.224-.104-.484-.622-1.244-.985t-1.677-.363q-1.313 0-2.194.622-.864.623-.864 1.694 0 .743.415 1.261.432.519 1.071.847.64.311 1.59.657 1.21.432 1.918.794.708.363 1.21 1.055.5.69.5 1.831 0 .795-.466 1.486-.467.691-1.348 1.106-.864.397-1.987.397zM187.732 331.257q-1.28 0-2.23-.432-.95-.449-1.883-1.382-.104-.104-.104-.26 0-.137.121-.258.121-.138.26-.138.155 0 .293.155.674.795 1.59 1.21.933.414 1.953.414 1.33 0 2.194-.639.864-.64.864-1.693-.017-.83-.45-1.366-.431-.535-1.07-.846-.623-.329-1.711-.726-1.192-.45-1.866-.795-.657-.345-1.14-.985-.467-.64-.467-1.676 0-.847.466-1.538.467-.69 1.33-1.088.865-.398 2.005-.398 1.02 0 1.935.38.916.363 1.452 1.037.173.242.173.363 0 .138-.139.26-.12.103-.276.103-.138 0-.225-.104-.483-.622-1.244-.985-.76-.363-1.676-.363-1.313 0-2.194.622-.864.623-.864 1.694 0 .743.414 1.261.432.519 1.072.847.639.311 1.59.657 1.209.432 1.917.794.709.363 1.21 1.055.501.69.501 1.831 0 .795-.466 1.486-.467.691-1.348 1.106-.864.397-1.987.397zM207.758 319.991q.156.121.156.277 0 .138-.07.224-.103.139-.258.139-.07 0-.208-.07-1.607-1.088-3.404-1.088-1.451 0-2.678.726-1.21.708-1.918 1.987-.708 1.261-.708 2.85 0 1.59.708 2.87.708 1.26 1.918 1.986 1.227.709 2.678.709 1.815 0 3.387-1.071.086-.07.207-.07.173 0 .277.139.069.086.069.207 0 .173-.138.277-.674.483-1.745.829-1.055.346-2.057.346-1.641 0-3.024-.813-1.382-.812-2.194-2.229-.812-1.434-.812-3.18 0-1.744.812-3.161.812-1.434 2.194-2.247 1.383-.812 3.024-.812 1.037 0 2.005.311.985.311 1.78.864zM220.925 325.037q0 1.814-.743 3.231-.725 1.417-2.039 2.212-1.313.777-2.989.777t-2.99-.777q-1.312-.795-2.056-2.212-.725-1.417-.725-3.231 0-1.814.725-3.231.744-1.417 2.057-2.195 1.313-.795 2.99-.795 1.675 0 2.988.795 1.314.778 2.04 2.195.742 1.417.742 3.23zm-.725 0q0-1.624-.64-2.886-.639-1.261-1.797-1.952-1.14-.692-2.609-.692t-2.626.692q-1.14.69-1.78 1.952-.64 1.262-.64 2.886t.64 2.886q.64 1.26 1.78 1.952 1.157.691 2.626.691 1.469 0 2.61-.69 1.157-.692 1.796-1.953.64-1.262.64-2.886zM232.295 330.618q.018.052.018.138 0 .156-.104.242-.104.087-.26.087-.12 0-.224-.052-.086-.07-.12-.173l-1.452-3.56.017.035h-5.789l-1.4 3.525q-.086.225-.31.225-.156 0-.26-.087-.086-.086-.103-.207-.017-.07.017-.173l4.648-11.439q.052-.138.121-.173.087-.051.208-.051.259 0 .345.224zm-7.637-3.974h5.235l-2.643-6.515zM243.51 319.991q.155.121.155.277 0 .138-.069.224-.104.139-.26.139-.068 0-.206-.07-1.607-1.088-3.404-1.088-1.452 0-2.679.726-1.21.708-1.918 1.987-.708 1.261-.708 2.85 0 1.59.708 2.87.709 1.26 1.918 1.986 1.227.709 2.679.709 1.814 0 3.386-1.071.087-.07.208-.07.172 0 .276.139.07.086.07.207 0 .173-.139.277-.674.483-1.745.829-1.054.346-2.057.346-1.641 0-3.023-.813-1.383-.812-2.195-2.229-.812-1.434-.812-3.18 0-1.744.812-3.161.812-1.434 2.195-2.247 1.382-.812 3.023-.812 1.037 0 2.005.311.985.311 1.78.864zM254.62 318.989q.156 0 .26.104.103.103.103.259v11.37q-.017.155-.12.259-.104.104-.243.104-.172 0-.276-.104-.086-.104-.086-.26v-5.511h-7.534v5.512q-.018.155-.121.259-.104.104-.242.104-.173 0-.277-.104-.086-.104-.086-.26v-11.37q0-.155.104-.258.103-.104.259-.104.155 0 .259.104.104.103.104.259v5.166h7.533v-5.166q0-.156.104-.26.104-.103.26-.103zM259.165 330.722q-.017.155-.121.259-.104.104-.242.104-.173 0-.276-.104-.087-.104-.087-.26v-11.37q0-.155.104-.258.104-.104.259-.104.156 0 .26.104.103.103.103.259zM271.364 318.989q.156 0 .242.104.087.086.087.224v11.388q0 .19-.104.293-.104.087-.26.087-.172 0-.276-.139l-7.776-10.626v10.47q0 .122-.103.208-.087.087-.225.087-.155 0-.242-.087-.086-.086-.086-.207v-11.456q0-.173.086-.26.104-.086.225-.086.155 0 .259.121l7.845 10.696v-10.489q0-.138.086-.224.104-.104.242-.104zM283.944 325.123q.155 0 .242.104.103.104.103.242v4.337q0 .207-.155.311-.795.536-1.746.847-.933.293-1.9.293-1.78 0-3.197-.794-1.4-.813-2.212-2.23-.795-1.416-.795-3.196 0-1.78.795-3.197.812-1.417 2.212-2.212 1.417-.812 3.197-.812.967 0 1.831.242.882.225 1.573.691.155.104.155.294 0 .156-.12.26-.104.086-.208.086-.086 0-.225-.07-1.451-.812-3.006-.812-1.59 0-2.834.709-1.244.708-1.953 1.97-.69 1.261-.69 2.85 0 1.59.69 2.852.709 1.261 1.953 1.97 1.244.708 2.834.708.795 0 1.607-.242.83-.259 1.503-.673v-3.837h-3.11q-.139 0-.242-.103-.104-.104-.104-.242 0-.156.104-.242.103-.104.242-.104z"/></g></g></svg>