<?xml version="1.0" encoding="UTF-8" standalone="no"?>
<svg
   xmlns:dc="http://purl.org/dc/elements/1.1/"
   xmlns:cc="http://creativecommons.org/ns#"
   xmlns:rdf="http://www.w3.org/1999/02/22-rdf-syntax-ns#"
   xmlns:svg="http://www.w3.org/2000/svg"
   xmlns="http://www.w3.org/2000/svg"
   width="400"
   height="400"
   viewBox="0 0 400 400"
   version="1.1"
   id="svg16">
  <defs
     id="defs10" />
  <metadata
     id="metadata13">
    <rdf:RDF>
      <cc:Work
         rdf:about="">
        <dc:format>image/svg+xml</dc:format>
        <dc:type
           rdf:resource="http://purl.org/dc/dcmitype/StillImage" />
        <dc:title></dc:title>
      </cc:Work>
    </rdf:RDF>
  </metadata>
  <g
     id="layer3"
     style="display:inline">
    <g
       id="g168">
      <g
         id="g1007"
         transform="matrix(4.5412723,0,0,4.5412723,-406.4569,-868.43541)"
         style="display:inline">
        <path
           style="fill:#000000;fill-opacity:1;fill-rule:nonzero;stroke:none"
           id="path991"
           d="m 108.23941,236.06969 c -2.37599,1.02405 -3.72853,3.34961 -4.92832,5.50934 -0.82111,1.65748 -1.48723,3.39196 -1.84066,5.21226 -0.0425,0.2189 -0.3405,1.78756 -0.0609,2.17048 0.49498,0.67783 1.20562,1.16803 1.80842,1.75204 0.34773,-0.0324 0.70737,-0.001 1.04319,-0.0974 1.20717,-0.34463 2.43467,-1.18771 3.39959,-1.90597 2.8446,-2.11744 5.12153,-4.63548 7.493,-7.24823 4.38791,-5.2804 8.59994,-10.70376 13.14072,-15.85675 3.10292,-3.52126 3.66457,-4.03283 6.84518,-7.33186 3.16176,-3.27223 6.58025,-6.26478 10.07409,-9.16963 1.02278,-0.35569 -0.36553,-0.73859 -3.3e-4,-1.32695 0,0 -0.0586,-0.0614 -0.0586,-0.0614 v 0 c -0.68131,0.11383 -0.96117,-1.02791 -1.51761,-0.21923 -3.52834,2.8668 -6.49167,6.38147 -9.70958,9.57174 -3.20942,3.44996 -3.57943,3.79048 -6.74762,7.44016 -4.49853,5.18219 -8.75121,10.56818 -13.18616,15.80358 -2.17317,2.32914 -2.89848,3.23949 -5.2476,5.27317 -1.45128,1.25641 -3.73603,3.16237 -5.69309,3.63316 -0.30374,0.0731 -0.62473,0.0103 -0.9371,0.0155 0.22167,0.28276 0.32297,0.95827 0.665,0.84827 0.32088,-0.1032 -0.27105,-0.62979 -0.30026,-0.96558 -0.0385,-0.44282 0.0281,-0.89113 0.1006,-1.32967 0.29998,-1.81483 1.03743,-3.52846 1.81741,-5.1783 1.19973,-2.12902 2.54263,-4.4248 4.98014,-5.28297 0,0 -1.13954,-1.25579 -1.13954,-1.25579 z" />
        <path
           style="fill:#000000;fill-opacity:1;fill-rule:nonzero;stroke:none"
           id="path993"
           d="m 143.54842,206.08675 c -1.60541,4.49535 -2.80855,9.12586 -4.07708,13.72457 -1.76686,6.30229 -3.36086,12.6497 -4.96791,18.99387 -0.64849,2.41126 -1.17855,4.85873 -1.89255,7.2524 -0.0232,0.17651 -0.14238,0.33073 -0.0691,0.498 0,0 1.9876,1.84951 1.9876,1.84951 v 0 c 0.18189,-0.0716 0.12271,-0.28886 0.18905,-0.45931 0.47412,-2.50669 1.10962,-4.98244 1.64218,-7.47667 1.47396,-6.40581 3.07827,-12.78157 4.81537,-19.12123 1.24184,-4.56813 2.44913,-9.16618 4.1989,-13.57264 0,0 -1.82648,-1.6885 -1.82648,-1.6885 z" />
        <path
           style="fill:#000000;fill-opacity:1;fill-rule:nonzero;stroke:none"
           id="path995"
           d="m 133.5839,242.24841 c -0.41694,-0.60756 -0.42782,-0.67719 -1.0248,-1.25711 -0.80985,-0.78671 -1.6101,-1.58602 -2.46931,-2.3185 -1.12424,-0.9584 -2.60807,-1.50505 -3.94958,-2.05737 -3.44817,-1.08809 -7.11028,-1.37537 -10.69084,-0.86668 -0.74991,0.10654 -1.4886,0.28095 -2.2329,0.42142 -1.19684,0.36725 -2.61132,0.65882 -3.62157,1.48969 -1.42392,1.17107 -1.83356,3.14725 -1.14454,4.83531 0.24411,0.59805 0.71506,1.07595 1.07258,1.61393 1.12829,0.8013 2.07455,1.95871 3.38486,2.4039 1.62535,0.55223 7.18972,-0.70506 8.28148,-0.94806 5.65098,-1.25774 11.27532,-2.97265 16.85069,-4.53533 5.8571,-1.73882 3.27985,-0.56612 7.84895,-3.24826 0,0 -0.0573,-0.0626 -0.0573,-0.0626 v 0 c -5.79895,0.98498 -2.84249,0.2976 -8.85144,2.1378 -3.89437,1.13245 -7.30953,2.1601 -11.25153,3.16153 -2.92664,0.7435 -7.34761,1.83891 -10.45691,2.07447 -1.18134,0.0895 -2.36875,-0.16677 -3.55232,-0.11461 -0.23729,0.0105 -0.431,0.19977 -0.64649,0.29965 -0.38323,-0.52379 -0.88168,-0.98027 -1.14967,-1.57137 -0.71196,-1.57034 -0.3162,-3.51377 1.01777,-4.61968 0.98168,-0.81386 2.39609,-1.10802 3.55945,-1.46589 0.74764,-0.12753 1.48995,-0.2916 2.2429,-0.38258 3.61097,-0.43636 7.29947,-0.11274 10.73861,1.08213 1.25656,0.54576 1.67812,0.67312 2.82447,1.37926 0.38478,0.23703 0.66376,0.81077 1.11408,0.77264 0.35084,-0.0297 -0.60341,-0.46553 -0.67858,-0.80952 -0.11067,-0.50644 1.08027,1.31011 1.0092,1.18326 0,0 1.83269,1.40261 1.83269,1.40261 z" />
        <path
           style="fill:#000000;fill-opacity:1;fill-rule:nonzero;stroke:none"
           id="path1001"
           d="m 149.35023,209.48427 c -2.0401,0.32099 -4.02007,1.32064 -5.29896,2.98694 -0.39457,0.51411 -0.67766,1.10488 -1.0165,1.65732 -0.79361,1.75428 -1.43611,3.62679 -1.43316,5.57927 7.5e-4,0.50046 0.0142,1.01732 0.17539,1.49109 0.51431,1.51135 2.50261,2.61578 3.48735,3.41085 0.6067,0.13001 1.20312,0.32427 1.8201,0.39002 3.41932,0.36441 6.98294,-0.71197 10.10371,-2.00415 0.81428,-0.33716 1.59594,-0.74828 2.39391,-1.12243 1.80931,-0.94753 3.54531,-2.07412 4.9365,-3.58877 0.41413,-0.45088 1.10751,-1.33888 1.25629,-2.00193 0.0597,-0.26595 -0.0272,-0.54445 -0.0409,-0.81667 -0.90623,-1.12417 -1.12057,-1.50877 -2.96795,-2.33554 -0.41097,-0.18392 -0.90229,-0.0333 -1.35073,0.007 -1.9559,0.17567 -3.77956,0.86848 -5.60947,1.52649 -2.08917,0.83963 -4.05475,1.89835 -5.71421,3.44258 -1.90011,1.76817 -3.26747,3.92323 -4.64756,6.09298 -2.02632,3.63392 -4.00103,7.43152 -4.97249,11.51032 -0.15938,0.66916 -0.24567,1.35365 -0.3685,2.03048 -0.11773,1.92331 -0.0224,3.90731 0.79186,5.69325 0.79083,1.73458 2.2751,2.97512 3.84521,4.02264 0.52564,0.35069 1.20125,0.39257 1.80188,0.58885 0.6739,0.0649 1.34471,0.1892 2.02171,0.19485 2.87734,0.024 5.70927,-1.04687 7.94079,-2.84908 0.47794,-0.38599 0.88255,-0.85485 1.32382,-1.28228 0.3024,-0.43413 0.66139,-0.83389 0.9072,-1.30239 0.51297,-0.97771 0.76008,-2.31345 0.2171,-3.34082 -0.46145,-0.8731 -2.99697,-2.55452 -3.09102,-2.62716 -0.26642,-0.0809 -2.44416,-0.18422 -2.53468,0.18286 -0.0891,0.36115 0.24694,0.70176 0.37041,1.05264 0,0 0.0584,0.0616 0.0584,0.0616 v 0 c 0.37682,0.20541 0.71473,0.50968 1.13047,0.61623 0.22297,0.0572 0.44465,-0.12628 0.67316,-0.15396 0.78415,-0.095 0.97979,-0.0151 1.76614,0.0928 -0.26234,-0.41807 -0.67663,-0.77316 -0.78703,-1.25422 -0.0661,-0.2882 0.47651,0.36779 0.64012,0.61408 0.99047,1.49092 -0.0235,3.26385 -0.93117,4.47477 -0.4258,0.42481 -0.81377,0.89124 -1.27738,1.27441 -2.18298,1.80421 -4.99065,2.81746 -7.82805,2.73903 -0.66983,-0.0185 -1.33047,-0.161 -1.9957,-0.2415 -0.58394,-0.21098 -1.13194,-0.5977 -1.75183,-0.63294 -0.18655,-0.0106 0.27107,0.67914 0.14465,0.54156 -1.7417,-1.89537 -1.9033,-4.62168 -1.82993,-7.0446 0.11346,-0.67534 0.19129,-1.35765 0.34036,-2.02603 0.91333,-4.09489 2.84725,-7.89652 4.8433,-11.55003 1.76547,-2.84011 3.54184,-5.58659 6.332,-7.5484 1.32797,-0.93372 2.39166,-1.3156 3.86616,-1.96663 1.83488,-0.62767 3.66604,-1.30495 5.62629,-1.40178 0.4443,-0.0219 1.06273,0.41284 1.33321,0.0597 0.25073,-0.32739 -0.54736,-0.71166 -0.51884,-1.12304 0.0171,-0.24677 0.37546,0.32215 0.56319,0.48322 0.0255,0.23464 0.12222,0.47234 0.0766,0.7039 -0.12869,0.65303 -0.7837,1.51562 -1.17751,1.9645 -1.33793,1.52501 -3.01683,2.6752 -4.78115,3.65031 -0.78852,0.37538 -1.55973,0.7895 -2.36555,1.12613 -3.02475,1.26363 -6.72305,2.34962 -10.03574,1.90596 -0.6085,-0.0815 -1.1907,-0.29983 -1.78605,-0.44975 0.0356,0.20826 0.2776,0.74915 0.10681,0.62477 -1.76563,-1.2859 -1.07568,-4.65067 -0.52791,-6.3334 0.20908,-0.64231 0.51169,-1.25031 0.76754,-1.87546 0.33248,-0.53859 0.6086,-1.11635 0.99743,-1.61578 1.28264,-1.64746 3.26447,-2.60559 5.31511,-2.76641 0,0 -1.33421,-1.53809 -1.33421,-1.53809 z" />
      </g>
      <g
         aria-label="ALVARO CAPELLAN"
         id="text1012"
         style="font-style:normal;font-variant:normal;font-weight:300;font-stretch:normal;font-size:30.9221px;line-height:1.25;font-family:'Quicksand Light';-inkscape-font-specification:'Quicksand Light, Light';font-variant-ligatures:normal;font-variant-caps:normal;font-variant-numeric:normal;font-variant-east-asian:normal;stroke-width:1.28842"
         transform="translate(-1.6022127e-4)">
        <path
           d="m 81.156454,309.75785 q 0.03092,0.0928 0.03092,0.24737 0,0.2783 -0.185533,0.43291 -0.185533,0.15461 -0.463831,0.15461 -0.216455,0 -0.401988,-0.0928 -0.15461,-0.12369 -0.216454,-0.30922 l -2.597457,-6.36996 0.03092,0.0618 H 66.994132 l -2.50469,6.30811 q -0.154611,0.40198 -0.556598,0.40198 -0.278299,0 -0.463832,-0.15461 -0.15461,-0.15461 -0.185532,-0.37106 -0.03092,-0.12369 0.03092,-0.30922 l 8.318045,-20.47043 q 0.09277,-0.24738 0.216454,-0.30923 0.154611,-0.0928 0.371066,-0.0928 0.463831,0 0.618442,0.40199 z m -13.667569,-7.11209 h 9.369397 L 72.1272,290.98813 Z"
           style="stroke-width:1.28842"
           id="path36" />
        <path
           d="m 97.328659,309.35586 q 0.247377,0 0.432909,0.18553 0.185533,0.18553 0.185533,0.43291 0,0.2783 -0.185533,0.46383 -0.185532,0.15461 -0.432909,0.15461 H 85.980248 q -0.278299,0 -0.463831,-0.18553 -0.154611,-0.18553 -0.154611,-0.43291 v -20.40859 q 0,-0.24737 0.185533,-0.4329 0.185532,-0.18554 0.463831,-0.18554 0.278299,0 0.463832,0.18554 0.185532,0.18553 0.185532,0.4329 v 19.79015 z"
           style="stroke-width:1.28842"
           id="path38" />
        <path
           d="m 115.57264,288.94727 q 0.2783,0 0.43291,0.15461 0.18554,0.15461 0.18554,0.40199 0,0.12369 -0.0619,0.30922 l -8.47265,20.37767 q -0.18554,0.40198 -0.58752,0.40198 -0.18554,0 -0.37107,-0.0928 -0.15461,-0.12369 -0.21645,-0.30922 l -8.410815,-20.2849 q -0.09277,-0.18553 -0.09277,-0.37107 0,-0.24737 0.154611,-0.40198 0.185532,-0.18554 0.432909,-0.18554 0.463832,0 0.680287,0.49476 l 7.854218,18.8934 7.88513,-18.98617 q 0.21646,-0.40199 0.58752,-0.40199 z"
           style="stroke-width:1.28842"
           id="path40" />
        <path
           d="m 135.17724,309.75785 q 0.0309,0.0928 0.0309,0.24737 0,0.2783 -0.18553,0.43291 -0.18554,0.15461 -0.46384,0.15461 -0.21645,0 -0.40198,-0.0928 -0.15461,-0.12369 -0.21646,-0.30922 l -2.59745,-6.36996 0.0309,0.0618 h -10.35891 l -2.50469,6.30811 q -0.15461,0.40198 -0.55659,0.40198 -0.2783,0 -0.46384,-0.15461 -0.15461,-0.15461 -0.18553,-0.37106 -0.0309,-0.12369 0.0309,-0.30922 l 8.31805,-20.47043 q 0.0928,-0.24738 0.21645,-0.30923 0.15461,-0.0928 0.37107,-0.0928 0.46383,0 0.61844,0.40199 z m -13.66757,-7.11209 h 9.36939 l -4.73108,-11.65763 z"
           style="stroke-width:1.28842"
           id="path42" />
        <path
           d="m 154.78179,309.38678 q 0.34015,0.21646 0.34015,0.5566 0,0.2783 -0.18554,0.46383 -0.15461,0.15461 -0.40198,0.15461 -0.18553,0 -0.2783,-0.0618 -0.8349,-0.46383 -1.32965,-1.54611 -0.49476,-1.11319 -0.49476,-3.61788 0,-2.53562 -1.36057,-3.46328 -1.36057,-0.95858 -3.15405,-0.95858 h -7.23577 v 9.06017 q 0,0.24738 -0.18554,0.43291 -0.18553,0.18553 -0.46383,0.18553 -0.2783,0 -0.46383,-0.18553 -0.18553,-0.18553 -0.18553,-0.43291 v -20.40859 q 0,-0.24737 0.18553,-0.4329 0.18553,-0.18554 0.43291,-0.18554 h 8.16343 q 1.79349,0 3.18498,0.74213 1.3915,0.71121 2.16455,1.97902 0.77305,1.2678 0.77305,2.87575 0,2.07178 -1.11319,3.55604 -1.08228,1.48427 -2.84484,2.00994 1.48426,0.46383 2.44285,1.85533 0.95858,1.36057 0.95858,3.37051 0,2.07178 0.24738,2.90667 0.2783,0.80398 0.80397,1.14412 z m -6.46271,-9.70954 q 1.94809,-0.18553 3.30866,-1.5461 1.36057,-1.36058 1.36057,-3.55604 0,-1.91718 -1.36057,-3.15406 -1.36057,-1.23688 -3.61789,-1.23688 h -7.32853 v 9.49308 z"
           style="stroke-width:1.28842"
           id="path44" />
        <path
           d="m 178.71548,299.77001 q 0,3.24682 -1.32965,5.78243 -1.29873,2.53561 -3.64881,3.95803 -2.35008,1.39149 -5.34952,1.39149 -2.99945,0 -5.34953,-1.39149 -2.35008,-1.42242 -3.67973,-3.95803 -1.29873,-2.53561 -1.29873,-5.78243 0,-3.24682 1.29873,-5.78243 1.32965,-2.53562 3.67973,-3.92711 2.35008,-1.42242 5.34953,-1.42242 2.99944,0 5.34952,1.42242 2.35008,1.39149 3.64881,3.92711 1.32965,2.53561 1.32965,5.78243 z m -1.29873,0 q 0,-2.90668 -1.14412,-5.16399 -1.14412,-2.25732 -3.2159,-3.4942 -2.04086,-1.23688 -4.66923,-1.23688 -2.62838,0 -4.70016,1.23688 -2.04086,1.23688 -3.18498,3.4942 -1.14412,2.25731 -1.14412,5.16399 0,2.90668 1.14412,5.16399 1.14412,2.25731 3.18498,3.4942 2.07178,1.23688 4.70016,1.23688 2.62837,0 4.66923,-1.23688 2.07178,-1.23689 3.2159,-3.4942 1.14412,-2.25731 1.14412,-5.16399 z"
           style="stroke-width:1.28842"
           id="path46" />
        <path
           d="m 207.72035,290.74075 q 0.2783,0.21646 0.2783,0.49476 0,0.24738 -0.12369,0.40199 -0.18553,0.24737 -0.46383,0.24737 -0.12369,0 -0.37107,-0.12369 -2.87575,-1.94809 -6.09165,-1.94809 -2.59746,0 -4.79292,1.29873 -2.16455,1.26781 -3.43236,3.55604 -1.2678,2.25731 -1.2678,5.10215 0,2.84483 1.2678,5.13307 1.26781,2.25731 3.43236,3.55604 2.19546,1.2678 4.79292,1.2678 3.24682,0 6.06073,-1.91717 0.15461,-0.12368 0.37107,-0.12368 0.30922,0 0.49475,0.24737 0.12369,0.15461 0.12369,0.37107 0,0.30922 -0.24738,0.49475 -1.20596,0.86582 -3.12313,1.48426 -1.88625,0.61844 -3.67973,0.61844 -2.9376,0 -5.41137,-1.45333 -2.47376,-1.45334 -3.9271,-3.98896 -1.45334,-2.56653 -1.45334,-5.68966 0,-3.12313 1.45334,-5.65875 1.45334,-2.56653 3.9271,-4.01987 2.47377,-1.45334 5.41137,-1.45334 1.85533,0 3.58696,0.5566 1.76256,0.5566 3.18498,1.5461 z"
           style="stroke-width:1.28842"
           id="path48" />
        <path
           d="m 228.03614,309.75785 q 0.0309,0.0928 0.0309,0.24737 0,0.2783 -0.18553,0.43291 -0.18554,0.15461 -0.46383,0.15461 -0.21646,0 -0.40199,-0.0928 -0.15461,-0.12369 -0.21646,-0.30922 l -2.59745,-6.36996 0.0309,0.0618 h -10.3589 l -2.50469,6.30811 q -0.15461,0.40198 -0.5566,0.40198 -0.2783,0 -0.46383,-0.15461 -0.15461,-0.15461 -0.18554,-0.37106 -0.0309,-0.12369 0.0309,-0.30922 l 8.31804,-20.47043 q 0.0928,-0.24738 0.21646,-0.30923 0.15461,-0.0928 0.37106,-0.0928 0.46383,0 0.61844,0.40199 z m -13.66757,-7.11209 h 9.3694 l -4.73109,-11.65763 z"
           style="stroke-width:1.28842"
           id="path50" />
        <path
           d="m 240.28124,288.94727 q 2.62838,0 4.23632,1.63887 1.60795,1.63888 1.60795,4.26725 0,1.73164 -0.74213,3.15406 -0.71121,1.39149 -2.04086,2.19547 -1.32965,0.77305 -3.06128,0.77305 h -6.74102 v 8.99833 q 0,0.24738 -0.21646,0.43291 -0.18553,0.18553 -0.43291,0.18553 -0.27829,0 -0.46383,-0.18553 -0.18553,-0.18553 -0.18553,-0.43291 v -20.40859 q 0,-0.24737 0.18553,-0.4329 0.18554,-0.18554 0.43291,-0.18554 z m 0,10.79182 q 2.07178,0 3.30866,-1.36058 1.23689,-1.39149 1.23689,-3.52512 0,-2.13362 -1.23689,-3.40143 -1.20596,-1.2678 -3.30866,-1.2678 h -6.74102 v 9.55493 z"
           style="stroke-width:1.28842"
           id="path52" />
        <path
           d="m 262.88529,309.35586 q 0.24737,0 0.43291,0.18553 0.18553,0.18553 0.18553,0.43291 0,0.2783 -0.18553,0.46383 -0.18554,0.15461 -0.43291,0.15461 h -11.65764 q -0.24737,0 -0.43291,-0.18553 -0.18553,-0.18553 -0.18553,-0.43291 v -20.40859 q 0,-0.24737 0.18553,-0.4329 0.18554,-0.18554 0.43291,-0.18554 h 11.65764 q 0.24737,0 0.43291,0.18554 0.18553,0.18553 0.18553,0.4329 0,0.2783 -0.18553,0.46384 -0.18554,0.15461 -0.43291,0.15461 h -10.97735 v 8.62726 h 9.58585 q 0.24738,0 0.43291,0.18554 0.18553,0.18553 0.18553,0.4329 0,0.2783 -0.18553,0.46384 -0.18553,0.15461 -0.43291,0.15461 h -9.58585 v 9.30755 z"
           style="stroke-width:1.28842"
           id="path54" />
        <path
           d="m 280.10887,309.35586 q 0.24738,0 0.43291,0.18553 0.18553,0.18553 0.18553,0.43291 0,0.2783 -0.18553,0.46383 -0.18553,0.15461 -0.43291,0.15461 h -11.34841 q -0.2783,0 -0.46383,-0.18553 -0.15461,-0.18553 -0.15461,-0.43291 v -20.40859 q 0,-0.24737 0.18553,-0.4329 0.18553,-0.18554 0.46383,-0.18554 0.2783,0 0.46383,0.18554 0.18554,0.18553 0.18554,0.4329 v 19.79015 z"
           style="stroke-width:1.28842"
           id="path56" />
        <path
           d="m 296.2502,309.35586 q 0.24737,0 0.43291,0.18553 0.18553,0.18553 0.18553,0.43291 0,0.2783 -0.18553,0.46383 -0.18554,0.15461 -0.43291,0.15461 h -11.34841 q -0.2783,0 -0.46383,-0.18553 -0.15461,-0.18553 -0.15461,-0.43291 v -20.40859 q 0,-0.24737 0.18553,-0.4329 0.18553,-0.18554 0.46383,-0.18554 0.2783,0 0.46383,0.18554 0.18553,0.18553 0.18553,0.4329 v 19.79015 z"
           style="stroke-width:1.28842"
           id="path58" />
        <path
           d="m 316.28769,309.75785 q 0.0309,0.0928 0.0309,0.24737 0,0.2783 -0.18554,0.43291 -0.18553,0.15461 -0.46383,0.15461 -0.21645,0 -0.40198,-0.0928 -0.15462,-0.12369 -0.21646,-0.30922 l -2.59746,-6.36996 0.0309,0.0618 h -10.35891 l -2.50469,6.30811 q -0.15461,0.40198 -0.5566,0.40198 -0.27829,0 -0.46383,-0.15461 -0.15461,-0.15461 -0.18553,-0.37106 -0.0309,-0.12369 0.0309,-0.30922 l 8.31805,-20.47043 q 0.0928,-0.24738 0.21645,-0.30923 0.15461,-0.0928 0.37107,-0.0928 0.46383,0 0.61844,0.40199 z m -13.66756,-7.11209 h 9.36939 l -4.73108,-11.65763 z"
           style="stroke-width:1.28842"
           id="path60" />
        <path
           d="m 336.13963,288.94727 q 0.2783,0 0.43291,0.18554 0.15461,0.15461 0.15461,0.40198 v 20.37767 q 0,0.34014 -0.18553,0.52567 -0.18554,0.15461 -0.46383,0.15461 -0.30923,0 -0.49476,-0.24737 l -13.91494,-19.0171 v 18.7388 q 0,0.21645 -0.18554,0.37106 -0.15461,0.15461 -0.40198,0.15461 -0.2783,0 -0.43291,-0.15461 -0.15461,-0.15461 -0.15461,-0.37106 v -20.50136 q 0,-0.30922 0.15461,-0.46383 0.18553,-0.15461 0.40198,-0.15461 0.2783,0 0.46384,0.21646 l 14.03863,19.14078 v -18.76972 q 0,-0.24737 0.15461,-0.40198 0.18553,-0.18554 0.43291,-0.18554 z"
           style="stroke-width:1.28842"
           id="path62" />
      </g>
      <g
         aria-label="BUSINESS COACHING"
         id="text78"
         style="font-style:normal;font-variant:normal;font-weight:normal;font-stretch:normal;font-size:17.2795px;line-height:1.25;font-family:'Quicksand Light';-inkscape-font-specification:'Quicksand Light, Normal';font-variant-ligatures:normal;font-variant-caps:normal;font-variant-numeric:normal;font-variant-east-asian:normal;stroke-width:1.07997">
        <path
           d="m 121.91412,324.76039 q 1.10588,0.20735 1.76251,1.00221 0.6739,0.79486 0.6739,2.05626 0,1.57244 -1.00222,2.41913 -0.98493,0.8467 -2.5228,0.8467 h -4.76914 q -0.13824,0 -0.24192,-0.10368 -0.10367,-0.10368 -0.10367,-0.24191 v -11.40447 q 0,-0.13824 0.10367,-0.24192 0.10368,-0.10367 0.24192,-0.10367 h 4.64818 q 1.38236,0 2.21178,0.79485 0.82941,0.79486 0.82941,2.14266 0,0.96765 -0.48382,1.76251 -0.48383,0.77758 -1.3478,1.07133 z m 1.10588,-2.85112 q 0,-1.01949 -0.63934,-1.62427 -0.62206,-0.60478 -1.76251,-0.60478 h -4.18163 v 4.85554 h 4.18163 q 1.07133,-0.0173 1.72795,-0.69118 0.6739,-0.69118 0.6739,-1.93531 z m -2.28089,8.48424 q 1.29596,0 2.09082,-0.63935 0.79486,-0.65662 0.79486,-1.9353 0,-1.27868 -0.79486,-1.91802 -0.79486,-0.65662 -2.09082,-0.65662 h -4.30259 v 5.14929 z"
           style="font-style:normal;font-variant:normal;font-weight:normal;font-stretch:normal;font-size:17.2795px;font-family:'Quicksand Light';-inkscape-font-specification:'Quicksand Light, Normal';font-variant-ligatures:normal;font-variant-caps:normal;font-variant-numeric:normal;font-variant-east-asian:normal;stroke-width:1.07997"
           id="path80" />
        <path
           d="m 135.4958,318.98904 q 0.15551,0 0.24191,0.10367 0.10368,0.10368 0.10368,0.24192 v 7.46474 q 0,1.20957 -0.60479,2.22906 -0.60478,1.01949 -1.62427,1.62427 -1.01949,0.60478 -2.21178,0.60478 -1.20956,0 -2.22905,-0.60478 -1.01949,-0.60478 -1.62427,-1.62427 -0.60479,-1.01949 -0.60479,-2.22906 v -7.46474 q 0,-0.15552 0.10368,-0.24192 0.10368,-0.10367 0.25919,-0.10367 0.15552,0 0.2592,0.10367 0.10367,0.10368 0.10367,0.24192 v 7.46474 q 0,1.01949 0.50111,1.88347 0.5011,0.86397 1.3478,1.38236 0.86397,0.5011 1.88346,0.5011 1.01949,0 1.86619,-0.5011 0.86398,-0.51839 1.36508,-1.38236 0.51839,-0.86398 0.51839,-1.88347 v -7.46474 q 0,-0.13824 0.0864,-0.24192 0.10368,-0.10367 0.2592,-0.10367 z"
           style="font-style:normal;font-variant:normal;font-weight:normal;font-stretch:normal;font-size:17.2795px;font-family:'Quicksand Light';-inkscape-font-specification:'Quicksand Light, Normal';font-variant-ligatures:normal;font-variant-caps:normal;font-variant-numeric:normal;font-variant-east-asian:normal;stroke-width:1.07997"
           id="path82" />
        <path
           d="m 142.21749,331.25748 q -1.27869,0 -2.22906,-0.43199 -0.95037,-0.44926 -1.88346,-1.38236 -0.10368,-0.10367 -0.10368,-0.25919 0,-0.13823 0.12096,-0.25919 0.12095,-0.13824 0.25919,-0.13824 0.15551,0 0.29375,0.15552 0.6739,0.79486 1.58971,1.20956 0.9331,0.41471 1.95259,0.41471 1.33052,0 2.19449,-0.63934 0.86398,-0.63934 0.86398,-1.69339 -0.0173,-0.82942 -0.44927,-1.36508 -0.43199,-0.53567 -1.07133,-0.8467 -0.62206,-0.32831 -1.71067,-0.72574 -1.19228,-0.44926 -1.86618,-0.79485 -0.65662,-0.34559 -1.14045,-0.98493 -0.46655,-0.63935 -0.46655,-1.67612 0,-0.84669 0.46655,-1.53787 0.46655,-0.69118 1.33052,-1.08861 0.86398,-0.39743 2.00442,-0.39743 1.01949,0 1.93531,0.38015 0.91581,0.36287 1.45147,1.03677 0.1728,0.24191 0.1728,0.36287 0,0.13824 -0.13824,0.25919 -0.12095,0.10368 -0.27647,0.10368 -0.13823,0 -0.22463,-0.10368 -0.48383,-0.62206 -1.24413,-0.98493 -0.76029,-0.36287 -1.67611,-0.36287 -1.31324,0 -2.19449,0.62206 -0.86398,0.62207 -0.86398,1.69339 0,0.74302 0.41471,1.26141 0.43199,0.51838 1.07133,0.84669 0.63934,0.31103 1.58971,0.65662 1.20957,0.43199 1.91803,0.79486 0.70846,0.36287 1.20956,1.05405 0.50111,0.69118 0.50111,1.83163 0,0.79485 -0.46655,1.48603 -0.46655,0.69118 -1.3478,1.10589 -0.86398,0.39743 -1.98714,0.39743 z"
           style="font-style:normal;font-variant:normal;font-weight:normal;font-stretch:normal;font-size:17.2795px;font-family:'Quicksand Light';-inkscape-font-specification:'Quicksand Light, Normal';font-variant-ligatures:normal;font-variant-caps:normal;font-variant-numeric:normal;font-variant-east-asian:normal;stroke-width:1.07997"
           id="path84" />
        <path
           d="m 149.35391,330.72182 q -0.0173,0.15551 -0.12096,0.25919 -0.10368,0.10368 -0.24191,0.10368 -0.1728,0 -0.27647,-0.10368 -0.0864,-0.10368 -0.0864,-0.25919 v -11.36991 q 0,-0.15552 0.10368,-0.2592 0.10367,-0.10367 0.25919,-0.10367 0.15551,0 0.25919,0.10367 0.10368,0.10368 0.10368,0.2592 z"
           style="font-style:normal;font-variant:normal;font-weight:normal;font-stretch:normal;font-size:17.2795px;font-family:'Quicksand Light';-inkscape-font-specification:'Quicksand Light, Normal';font-variant-ligatures:normal;font-variant-caps:normal;font-variant-numeric:normal;font-variant-east-asian:normal;stroke-width:1.07997"
           id="path86" />
        <path
           d="m 161.55321,318.98904 q 0.15551,0 0.24191,0.10367 0.0864,0.0864 0.0864,0.22464 v 11.38719 q 0,0.19007 -0.10368,0.29375 -0.10367,0.0864 -0.25919,0.0864 -0.17279,0 -0.27647,-0.13824 l -7.77578,-10.62689 v 10.47137 q 0,0.12096 -0.10367,0.20736 -0.0864,0.0864 -0.22464,0.0864 -0.15551,0 -0.24191,-0.0864 -0.0864,-0.0864 -0.0864,-0.20736 v -11.4563 q 0,-0.1728 0.0864,-0.2592 0.10368,-0.0864 0.22463,-0.0864 0.15552,0 0.2592,0.12095 l 7.84489,10.69601 v -10.48865 q 0,-0.13824 0.0864,-0.22464 0.10367,-0.10367 0.24191,-0.10367 z"
           style="font-style:normal;font-variant:normal;font-weight:normal;font-stretch:normal;font-size:17.2795px;font-family:'Quicksand Light';-inkscape-font-specification:'Quicksand Light, Normal';font-variant-ligatures:normal;font-variant-caps:normal;font-variant-numeric:normal;font-variant-east-asian:normal;stroke-width:1.07997"
           id="path88" />
        <path
           d="m 172.19735,330.39351 q 0.13824,0 0.24192,0.10367 0.10367,0.10368 0.10367,0.24192 0,0.15551 -0.10367,0.25919 -0.10368,0.0864 -0.24192,0.0864 h -6.51437 q -0.13823,0 -0.24191,-0.10368 -0.10368,-0.10368 -0.10368,-0.24191 v -11.40447 q 0,-0.13824 0.10368,-0.24192 0.10368,-0.10367 0.24191,-0.10367 h 6.51437 q 0.13824,0 0.24192,0.10367 0.10367,0.10368 0.10367,0.24192 0,0.15551 -0.10367,0.25919 -0.10368,0.0864 -0.24192,0.0864 h -6.13422 v 4.82098 h 5.35665 q 0.13823,0 0.24191,0.10367 0.10368,0.10368 0.10368,0.24192 0,0.15551 -0.10368,0.25919 -0.10368,0.0864 -0.24191,0.0864 h -5.35665 v 5.20113 z"
           style="font-style:normal;font-variant:normal;font-weight:normal;font-stretch:normal;font-size:17.2795px;font-family:'Quicksand Light';-inkscape-font-specification:'Quicksand Light, Normal';font-variant-ligatures:normal;font-variant-caps:normal;font-variant-numeric:normal;font-variant-east-asian:normal;stroke-width:1.07997"
           id="path90" />
        <path
           d="m 178.22789,331.25748 q -1.27868,0 -2.22906,-0.43199 -0.95037,-0.44926 -1.88346,-1.38236 -0.10368,-0.10367 -0.10368,-0.25919 0,-0.13823 0.12096,-0.25919 0.12096,-0.13824 0.25919,-0.13824 0.15552,0 0.29375,0.15552 0.6739,0.79486 1.58972,1.20956 0.93309,0.41471 1.95258,0.41471 1.33052,0 2.1945,-0.63934 0.86397,-0.63934 0.86397,-1.69339 -0.0173,-0.82942 -0.44927,-1.36508 -0.43198,-0.53567 -1.07132,-0.8467 -0.62207,-0.32831 -1.71067,-0.72574 -1.19229,-0.44926 -1.86619,-0.79485 -0.65662,-0.34559 -1.14045,-0.98493 -0.46654,-0.63935 -0.46654,-1.67612 0,-0.84669 0.46654,-1.53787 0.46655,-0.69118 1.33052,-1.08861 0.86398,-0.39743 2.00443,-0.39743 1.01949,0 1.9353,0.38015 0.91581,0.36287 1.45148,1.03677 0.17279,0.24191 0.17279,0.36287 0,0.13824 -0.13823,0.25919 -0.12096,0.10368 -0.27648,0.10368 -0.13823,0 -0.22463,-0.10368 -0.48382,-0.62206 -1.24412,-0.98493 -0.7603,-0.36287 -1.67611,-0.36287 -1.31325,0 -2.1945,0.62206 -0.86398,0.62207 -0.86398,1.69339 0,0.74302 0.41471,1.26141 0.43199,0.51838 1.07133,0.84669 0.63934,0.31103 1.58972,0.65662 1.20956,0.43199 1.91802,0.79486 0.70846,0.36287 1.20956,1.05405 0.50111,0.69118 0.50111,1.83163 0,0.79485 -0.46655,1.48603 -0.46654,0.69118 -1.3478,1.10589 -0.86397,0.39743 -1.98714,0.39743 z"
           style="font-style:normal;font-variant:normal;font-weight:normal;font-stretch:normal;font-size:17.2795px;font-family:'Quicksand Light';-inkscape-font-specification:'Quicksand Light, Normal';font-variant-ligatures:normal;font-variant-caps:normal;font-variant-numeric:normal;font-variant-east-asian:normal;stroke-width:1.07997"
           id="path92" />
        <path
           d="m 187.7316,331.25748 q -1.27868,0 -2.22905,-0.43199 -0.95038,-0.44926 -1.88347,-1.38236 -0.10368,-0.10367 -0.10368,-0.25919 0,-0.13823 0.12096,-0.25919 0.12096,-0.13824 0.25919,-0.13824 0.15552,0 0.29375,0.15552 0.67391,0.79486 1.58972,1.20956 0.93309,0.41471 1.95258,0.41471 1.33052,0 2.1945,-0.63934 0.86397,-0.63934 0.86397,-1.69339 -0.0173,-0.82942 -0.44926,-1.36508 -0.43199,-0.53567 -1.07133,-0.8467 -0.62206,-0.32831 -1.71067,-0.72574 -1.19229,-0.44926 -1.86619,-0.79485 -0.65662,-0.34559 -1.14045,-0.98493 -0.46654,-0.63935 -0.46654,-1.67612 0,-0.84669 0.46654,-1.53787 0.46655,-0.69118 1.33053,-1.08861 0.86397,-0.39743 2.00442,-0.39743 1.01949,0 1.9353,0.38015 0.91581,0.36287 1.45148,1.03677 0.17279,0.24191 0.17279,0.36287 0,0.13824 -0.13823,0.25919 -0.12096,0.10368 -0.27647,0.10368 -0.13824,0 -0.22464,-0.10368 -0.48382,-0.62206 -1.24412,-0.98493 -0.7603,-0.36287 -1.67611,-0.36287 -1.31324,0 -2.1945,0.62206 -0.86397,0.62207 -0.86397,1.69339 0,0.74302 0.4147,1.26141 0.43199,0.51838 1.07133,0.84669 0.63934,0.31103 1.58972,0.65662 1.20956,0.43199 1.91802,0.79486 0.70846,0.36287 1.20957,1.05405 0.5011,0.69118 0.5011,1.83163 0,0.79485 -0.46654,1.48603 -0.46655,0.69118 -1.34781,1.10589 -0.86397,0.39743 -1.98714,0.39743 z"
           style="font-style:normal;font-variant:normal;font-weight:normal;font-stretch:normal;font-size:17.2795px;font-family:'Quicksand Light';-inkscape-font-specification:'Quicksand Light, Normal';font-variant-ligatures:normal;font-variant-caps:normal;font-variant-numeric:normal;font-variant-east-asian:normal;stroke-width:1.07997"
           id="path94" />
        <path
           d="m 207.7585,319.99125 q 0.15552,0.12095 0.15552,0.27647 0,0.13824 -0.0691,0.22463 -0.10368,0.13824 -0.25919,0.13824 -0.0691,0 -0.20736,-0.0691 -1.60699,-1.08861 -3.40406,-1.08861 -1.45147,0 -2.67832,0.72574 -1.20956,0.70846 -1.91802,1.98714 -0.70846,1.26141 -0.70846,2.85112 0,1.58972 0.70846,2.8684 0.70846,1.2614 1.91802,1.98714 1.22685,0.70846 2.67832,0.70846 1.81435,0 3.38678,-1.07133 0.0864,-0.0691 0.20736,-0.0691 0.17279,0 0.27647,0.13824 0.0691,0.0864 0.0691,0.20735 0,0.1728 -0.13824,0.27648 -0.6739,0.48382 -1.74523,0.82941 -1.05405,0.34559 -2.05626,0.34559 -1.64155,0 -3.02391,-0.81214 -1.38236,-0.81213 -2.1945,-2.22905 -0.81213,-1.4342 -0.81213,-3.17943 0,-1.74523 0.81213,-3.16215 0.81214,-1.4342 2.1945,-2.24633 1.38236,-0.81214 3.02391,-0.81214 1.03677,0 2.00442,0.31103 0.98494,0.31103 1.77979,0.86398 z"
           style="font-style:normal;font-variant:normal;font-weight:normal;font-stretch:normal;font-size:17.2795px;font-family:'Quicksand Light';-inkscape-font-specification:'Quicksand Light, Normal';font-variant-ligatures:normal;font-variant-caps:normal;font-variant-numeric:normal;font-variant-east-asian:normal;stroke-width:1.07997"
           id="path96" />
        <path
           d="m 220.92546,325.03686 q 0,1.81435 -0.74301,3.23127 -0.72574,1.41692 -2.03899,2.21177 -1.31324,0.77758 -2.98935,0.77758 -1.67611,0 -2.98935,-0.77758 -1.31324,-0.79485 -2.05626,-2.21177 -0.72574,-1.41692 -0.72574,-3.23127 0,-1.81435 0.72574,-3.23126 0.74302,-1.41692 2.05626,-2.1945 1.31324,-0.79486 2.98935,-0.79486 1.67611,0 2.98935,0.79486 1.31325,0.77758 2.03899,2.1945 0.74301,1.41691 0.74301,3.23126 z m -0.72574,0 q 0,-1.62427 -0.63934,-2.88567 -0.63934,-1.26141 -1.79706,-1.95259 -1.14045,-0.69118 -2.60921,-0.69118 -1.46876,0 -2.62648,0.69118 -1.14045,0.69118 -1.77979,1.95259 -0.63934,1.2614 -0.63934,2.88567 0,1.62427 0.63934,2.88568 0.63934,1.2614 1.77979,1.95258 1.15772,0.69118 2.62648,0.69118 1.46876,0 2.60921,-0.69118 1.15772,-0.69118 1.79706,-1.95258 0.63934,-1.26141 0.63934,-2.88568 z"
           style="font-style:normal;font-variant:normal;font-weight:normal;font-stretch:normal;font-size:17.2795px;font-family:'Quicksand Light';-inkscape-font-specification:'Quicksand Light, Normal';font-variant-ligatures:normal;font-variant-caps:normal;font-variant-numeric:normal;font-variant-east-asian:normal;stroke-width:1.07997"
           id="path98" />
        <path
           d="m 232.29534,330.61814 q 0.0173,0.0518 0.0173,0.13824 0,0.15551 -0.10367,0.24191 -0.10368,0.0864 -0.2592,0.0864 -0.12095,0 -0.22463,-0.0518 -0.0864,-0.0691 -0.12096,-0.1728 l -1.45147,-3.55957 0.0173,0.0346 h -5.78864 l -1.39964,3.52502 q -0.0864,0.22464 -0.31103,0.22464 -0.15551,0 -0.25919,-0.0864 -0.0864,-0.0864 -0.10368,-0.20736 -0.0173,-0.0691 0.0173,-0.17279 l 4.64819,-11.43903 q 0.0518,-0.13823 0.12095,-0.17279 0.0864,-0.0518 0.20736,-0.0518 0.25919,0 0.34559,0.22463 z m -7.63754,-3.97428 h 5.23569 l -2.64376,-6.51438 z"
           style="font-style:normal;font-variant:normal;font-weight:normal;font-stretch:normal;font-size:17.2795px;font-family:'Quicksand Light';-inkscape-font-specification:'Quicksand Light, Normal';font-variant-ligatures:normal;font-variant-caps:normal;font-variant-numeric:normal;font-variant-east-asian:normal;stroke-width:1.07997"
           id="path100" />
        <path
           d="m 243.50969,319.99125 q 0.15552,0.12095 0.15552,0.27647 0,0.13824 -0.0691,0.22463 -0.10368,0.13824 -0.25919,0.13824 -0.0691,0 -0.20736,-0.0691 -1.60699,-1.08861 -3.40406,-1.08861 -1.45147,0 -2.67832,0.72574 -1.20956,0.70846 -1.91802,1.98714 -0.70846,1.26141 -0.70846,2.85112 0,1.58972 0.70846,2.8684 0.70846,1.2614 1.91802,1.98714 1.22685,0.70846 2.67832,0.70846 1.81435,0 3.38679,-1.07133 0.0864,-0.0691 0.20735,-0.0691 0.17279,0 0.27647,0.13824 0.0691,0.0864 0.0691,0.20735 0,0.1728 -0.13824,0.27648 -0.6739,0.48382 -1.74523,0.82941 -1.05405,0.34559 -2.05626,0.34559 -1.64155,0 -3.02391,-0.81214 -1.38236,-0.81213 -2.1945,-2.22905 -0.81213,-1.4342 -0.81213,-3.17943 0,-1.74523 0.81213,-3.16215 0.81214,-1.4342 2.1945,-2.24633 1.38236,-0.81214 3.02391,-0.81214 1.03677,0 2.00443,0.31103 0.98493,0.31103 1.77978,0.86398 z"
           style="font-style:normal;font-variant:normal;font-weight:normal;font-stretch:normal;font-size:17.2795px;font-family:'Quicksand Light';-inkscape-font-specification:'Quicksand Light, Normal';font-variant-ligatures:normal;font-variant-caps:normal;font-variant-numeric:normal;font-variant-east-asian:normal;stroke-width:1.07997"
           id="path102" />
        <path
           d="m 254.62039,318.98904 q 0.15551,0 0.25919,0.10367 0.10368,0.10368 0.10368,0.2592 v 11.36991 q -0.0173,0.15551 -0.12096,0.25919 -0.10368,0.10368 -0.24191,0.10368 -0.1728,0 -0.27648,-0.10368 -0.0864,-0.10368 -0.0864,-0.25919 v -5.51216 h -7.53387 v 5.51216 q -0.0173,0.15551 -0.12095,0.25919 -0.10368,0.10368 -0.24191,0.10368 -0.1728,0 -0.27648,-0.10368 -0.0864,-0.10368 -0.0864,-0.25919 v -11.36991 q 0,-0.15552 0.10367,-0.2592 0.10368,-0.10367 0.2592,-0.10367 0.15551,0 0.25919,0.10367 0.10367,0.10368 0.10367,0.2592 v 5.16657 h 7.53387 v -5.16657 q 0,-0.15552 0.10367,-0.2592 0.10368,-0.10367 0.2592,-0.10367 z"
           style="font-style:normal;font-variant:normal;font-weight:normal;font-stretch:normal;font-size:17.2795px;font-family:'Quicksand Light';-inkscape-font-specification:'Quicksand Light, Normal';font-variant-ligatures:normal;font-variant-caps:normal;font-variant-numeric:normal;font-variant-east-asian:normal;stroke-width:1.07997"
           id="path104" />
        <path
           d="m 259.16489,330.72182 q -0.0173,0.15551 -0.12095,0.25919 -0.10368,0.10368 -0.24192,0.10368 -0.17279,0 -0.27647,-0.10368 -0.0864,-0.10368 -0.0864,-0.25919 v -11.36991 q 0,-0.15552 0.10368,-0.2592 0.10368,-0.10367 0.25919,-0.10367 0.15552,0 0.2592,0.10367 0.10367,0.10368 0.10367,0.2592 z"
           style="font-style:normal;font-variant:normal;font-weight:normal;font-stretch:normal;font-size:17.2795px;font-family:'Quicksand Light';-inkscape-font-specification:'Quicksand Light, Normal';font-variant-ligatures:normal;font-variant-caps:normal;font-variant-numeric:normal;font-variant-east-asian:normal;stroke-width:1.07997"
           id="path106" />
        <path
           d="m 271.36419,318.98904 q 0.15552,0 0.24191,0.10367 0.0864,0.0864 0.0864,0.22464 v 11.38719 q 0,0.19007 -0.10368,0.29375 -0.10367,0.0864 -0.25919,0.0864 -0.17279,0 -0.27647,-0.13824 l -7.77577,-10.62689 v 10.47137 q 0,0.12096 -0.10368,0.20736 -0.0864,0.0864 -0.22463,0.0864 -0.15552,0 -0.24192,-0.0864 -0.0864,-0.0864 -0.0864,-0.20736 v -11.4563 q 0,-0.1728 0.0864,-0.2592 0.10368,-0.0864 0.22464,-0.0864 0.15551,0 0.25919,0.12095 l 7.84489,10.69601 v -10.48865 q 0,-0.13824 0.0864,-0.22464 0.10368,-0.10367 0.24191,-0.10367 z"
           style="font-style:normal;font-variant:normal;font-weight:normal;font-stretch:normal;font-size:17.2795px;font-family:'Quicksand Light';-inkscape-font-specification:'Quicksand Light, Normal';font-variant-ligatures:normal;font-variant-caps:normal;font-variant-numeric:normal;font-variant-east-asian:normal;stroke-width:1.07997"
           id="path108" />
        <path
           d="m 283.94363,325.12326 q 0.15552,0 0.24192,0.10368 0.10367,0.10367 0.10367,0.24191 v 4.33715 q 0,0.20736 -0.15551,0.31103 -0.79486,0.53567 -1.74523,0.8467 -0.9331,0.29375 -1.90075,0.29375 -1.77979,0 -3.1967,-0.79486 -1.39964,-0.81213 -2.21178,-2.22905 -0.79486,-1.41692 -0.79486,-3.19671 0,-1.77979 0.79486,-3.19671 0.81214,-1.41691 2.21178,-2.21177 1.41691,-0.81214 3.1967,-0.81214 0.96765,0 1.83163,0.24191 0.88125,0.22464 1.57243,0.69118 0.15552,0.10368 0.15552,0.29376 0,0.15551 -0.12096,0.25919 -0.10367,0.0864 -0.20735,0.0864 -0.0864,0 -0.22463,-0.0691 -1.45148,-0.81214 -3.00664,-0.81214 -1.58971,0 -2.83383,0.70846 -1.24413,0.70846 -1.95259,1.96986 -0.69118,1.26141 -0.69118,2.85112 0,1.58972 0.69118,2.85112 0.70846,1.2614 1.95259,1.96986 1.24412,0.70846 2.83383,0.70846 0.79486,0 1.607,-0.24191 0.82941,-0.25919 1.50331,-0.6739 v -3.83605 h -3.11031 q -0.13823,0 -0.24191,-0.10368 -0.10368,-0.10367 -0.10368,-0.24191 0,-0.15552 0.10368,-0.24191 0.10368,-0.10368 0.24191,-0.10368 z"
           style="font-style:normal;font-variant:normal;font-weight:normal;font-stretch:normal;font-size:17.2795px;font-family:'Quicksand Light';-inkscape-font-specification:'Quicksand Light, Normal';font-variant-ligatures:normal;font-variant-caps:normal;font-variant-numeric:normal;font-variant-east-asian:normal;stroke-width:1.07997"
           id="path110" />
      </g>
    </g>
  </g>
</svg>
