<svg xmlns="http://www.w3.org/2000/svg" width="300" height="300" xmlns:v="https://vecta.io/nano"><path d="M35.088 154.26c-10.79 4.65-16.932 15.211-22.381 25.019-3.729 7.527-6.754 15.404-8.359 23.67-.193.994-1.546 8.118-.277 9.857 2.248 3.078 5.475 5.304 8.213 7.956 1.579-.147 3.212-.005 4.737-.442 5.482-1.565 11.056-5.394 15.438-8.656 12.918-9.616 23.258-21.051 34.028-32.916 19.927-23.98 39.055-48.609 59.676-72.01 14.091-15.991 16.642-18.314 31.086-33.296 14.358-14.86 29.883-28.45 45.749-41.642 4.645-1.615-1.66-3.354-.001-6.026l-.266-.279h0c-3.094.517-4.365-4.668-6.892-.996-16.023 13.019-29.48 28.98-44.094 43.468-14.575 15.667-16.255 17.214-30.643 33.788-20.429 23.534-39.742 47.993-59.882 71.768-9.869 10.577-13.163 14.711-23.831 23.947-6.591 5.706-16.966 14.361-25.854 16.499-1.379.332-2.837.047-4.256.07 1.007 1.284 1.467 4.352 3.02 3.852 1.457-.469-1.231-2.86-1.364-4.385-.175-2.011.128-4.047.457-6.038 1.362-8.242 4.711-16.024 8.253-23.516 5.448-9.668 11.547-20.094 22.616-23.991l-5.175-5.703z"/><path d="M195.436 18.099c-7.291 20.415-12.754 41.443-18.515 62.327-8.024 28.62-15.263 57.446-22.561 86.256-2.945 10.95-5.352 22.065-8.595 32.935-.105.802-.647 1.502-.314 2.262l9.026 8.399h0c.826-.325.557-1.312.859-2.086 2.153-11.384 5.039-22.627 7.458-33.954a2169.43 2169.43 0 0 1 21.868-86.835c5.64-20.745 11.122-41.626 19.068-61.637l-8.295-7.668z"/><path d="M150.184 182.319c-1.893-2.759-1.943-3.075-4.654-5.709-3.678-3.573-7.312-7.203-11.214-10.529-5.105-4.352-11.844-6.835-17.936-9.343-15.659-4.941-32.29-6.246-48.55-3.936-3.406.484-6.76 1.276-10.14 1.914-5.435 1.668-11.859 2.992-16.447 6.765-6.466 5.318-8.327 14.293-5.198 21.958 1.109 2.716 3.247 4.886 4.871 7.329 5.124 3.639 9.421 8.895 15.372 10.917 7.381 2.508 32.65-3.202 37.608-4.305 25.663-5.712 51.204-13.5 76.524-20.596 26.599-7.896 14.895-2.571 35.644-14.751l-.26-.284h0c-26.335 4.473-12.909 1.351-40.197 9.708l-51.096 14.357c-13.291 3.376-33.367 8.351-47.488 9.421-5.365.406-10.757-.757-16.132-.52-1.078.048-1.957.907-2.936 1.361-1.74-2.379-4.004-4.452-5.221-7.136-3.233-7.131-1.436-15.957 4.622-20.979 4.458-3.696 10.881-5.032 16.164-6.657 3.395-.579 6.766-1.324 10.186-1.737 16.398-1.982 33.149-.512 48.767 4.914 5.706 2.478 7.621 3.057 12.827 6.264 1.747 1.076 3.014 3.682 5.059 3.509 1.593-.135-2.74-2.114-3.082-3.676-.503-2.3 4.906 5.95 4.583 5.374l8.323 6.37z"/><path d="M221.783 33.528c-9.265 1.458-18.256 5.997-24.064 13.565-1.792 2.335-3.077 5.018-4.616 7.526-3.604 7.967-6.522 16.47-6.508 25.337.003 2.273.064 4.62.796 6.771 2.336 6.863 11.365 11.879 15.837 15.49 2.755.59 5.464 1.473 8.266 1.771 15.528 1.655 31.711-3.233 45.884-9.101 3.698-1.531 7.248-3.398 10.871-5.097 8.217-4.303 16.1-9.419 22.418-16.298 1.881-2.048 5.03-6.08 5.705-9.091.271-1.208-.124-2.472-.186-3.709-4.115-5.105-5.089-6.852-13.478-10.606-1.866-.835-4.098-.151-6.134.032-8.882.798-17.164 3.944-25.474 6.932-9.487 3.813-18.414 8.621-25.95 15.634-8.629 8.03-14.838 17.816-21.106 27.67-9.202 16.503-18.17 33.749-22.581 52.271-.724 3.039-1.116 6.147-1.673 9.221-.535 8.734-.102 17.744 3.596 25.855 3.591 7.877 10.332 13.511 17.462 18.268 2.387 1.593 5.455 1.783 8.183 2.674 3.06.295 6.107.859 9.181.885 13.067.109 25.927-4.754 36.061-12.938 2.17-1.753 4.008-3.882 6.012-5.823 1.373-1.972 3.004-3.787 4.12-5.915 2.33-4.44 3.452-10.506.986-15.172-2.096-3.965-13.61-11.601-14.037-11.931-1.21-.367-11.1-.837-11.511.83-.405 1.64 1.121 3.187 1.682 4.78l.265.28h0c1.711.933 3.246 2.315 5.134 2.798 1.013.26 2.019-.573 3.057-.699 3.561-.431 4.449-.069 8.021.421-1.191-1.899-3.073-3.511-3.574-5.696-.3-1.309 2.164 1.67 2.907 2.789 4.498 6.771-.107 14.822-4.229 20.321-1.934 1.929-3.696 4.047-5.801 5.787-9.914 8.193-22.664 12.795-35.549 12.439-3.042-.084-6.042-.731-9.063-1.097-2.652-.958-5.14-2.714-7.956-2.874-.847-.048 1.231 3.084.657 2.459-7.91-8.607-8.643-20.988-8.31-31.991.515-3.067.869-6.165 1.546-9.201 4.148-18.596 12.93-35.86 21.995-52.452 8.017-12.898 16.084-25.37 28.755-34.279 6.031-4.24 10.861-5.974 17.557-8.931 8.333-2.85 16.648-5.926 25.551-6.366 2.018-.099 4.826 1.875 6.054.271 1.139-1.487-2.486-3.232-2.356-5.1.078-1.121 1.705 1.463 2.558 2.194.116 1.066.555 2.145.348 3.197-.584 2.966-3.559 6.883-5.347 8.921-6.076 6.925-13.7 12.149-21.713 16.577-3.581 1.705-7.083 3.585-10.743 5.114-13.736 5.738-30.531 10.67-45.575 8.655-2.763-.37-5.407-1.362-8.111-2.042.162.946 1.261 3.402.485 2.837-8.018-5.84-4.885-21.12-2.397-28.762.949-2.917 2.324-5.678 3.486-8.517 1.51-2.446 2.764-5.07 4.53-7.338 5.825-7.482 14.825-11.833 24.137-12.563l-6.059-6.985z"/><text xml:space="preserve" x="63.271" y="310.371" font-size="80" font-family="sans-serif"><tspan x="13.305" y="260.97" font-weight="normal" font-size="29.333">ALVARO CAPELLAN</tspan></text><text xml:space="preserve" x="114.13" y="331.075" font-size="80" font-family="sans-serif"><tspan x="64.164" y="281.674" font-weight="normal" font-size="16">BUSINESS COACHING</tspan></text></svg>