<svg xmlns="http://www.w3.org/2000/svg" width="100" height="100" viewBox="0 0 26.458 26.458"><g fill="none" stroke="#000" stroke-width=".529"><g transform="translate(-6.25 1.011) scale(.91261)"><circle cx="13.323" cy="5.424" r="2.646"/><path d="M20.701 6.356c-2.246 1.592-6.045 4.028-6.045 4.028l-.022 4.488 4.416 2.061s.048 2.684-.668 4.965c-.264.842-2.502-.136-1.978-.845.984-1.33.495-2.602.495-2.602l-2.301-1.165s.127 4.134-.004 6.568c-.044.82-2.701.787-2.465 0 .797-2.66.575-11.826.575-11.826l-1.4 6.415c-.817.236-1.634-.248-1.342-.929l1.607-7.502c.279-.65.6-.934 1.143-1.194l1.622-.054S18.482 5.85 19.57 4.88c.462-.413 1.638 1.117 1.132 1.475z"/><path d="M14.549 17.303c-.597-.462-1.816-.34-1.79-1.386l-.055-3.888-1.135-2.016"/></g><path d="m10.985 18.473 2.008-1.079 5.292-11.812 6.64 7.696M9.157 19.287l-2.078.91M5.06 21.216 1.45 22.961M18.285 4.402l2.445-.59-2.445-.59v2.36"/><path d="m17.185 8.062.99 1.274 1.107-1.08 1.03 1.113.628-.509"/></g></svg>