<svg xmlns="http://www.w3.org/2000/svg" width="100" height="100" viewBox="0 0 26.458 26.458"><g fill="none" stroke="#000" stroke-width=".529"><g transform="matrix(.92 0 0 .92 -7.226 14.087)"><path d="M9.004 10.716c0-2.646 1.588-2.646 1.588-2.646h5.291s1.588 0 1.588 2.646"/><circle cx="13.238" cy="5.424" r="2.646"/></g><g transform="matrix(.92 0 0 .92 1.05 14.087)"><path d="M9.004 10.716c0-2.646 1.588-2.646 1.588-2.646h5.291s1.588 0 1.588 2.646"/><circle cx="13.238" cy="5.424" r="2.646"/></g><g transform="matrix(.92 0 0 .92 9.327 14.087)"><path d="M9.004 10.716c0-2.646 1.588-2.646 1.588-2.646h5.291s1.588 0 1.588 2.646"/><circle cx="13.238" cy="5.424" r="2.646"/></g><g transform="translate(-2.623 1.879) scale(.89831)"><path d="M13.852 10.715v11.668m-2.646-.675v-5.701M8.56 10.715v5.691m2.646 5.302v-5.701M7.357 16.665c-.34-.316-.438-1.677-.384-3.04v-2.91c0-2.646 1.588-2.646 1.588-2.646l2.645 1.059 2.646-1.059s1.588 0 1.588 2.646v2.91c.014 1.995-.02 3.9-1.588 3.97"/><circle cx="11.206" cy="5.424" r="2.646"/></g><path d="M3.704 16.008H1.588V2.777H24.87v13.23H11.113"/></g></svg>