<svg xmlns="http://www.w3.org/2000/svg" width="100" height="100" viewBox="0 0 26.458 26.458"><g fill="none" stroke="#000" stroke-width=".529" transform="translate(.22 .513)"><circle cx="3.896" cy="4.461" r="2.646"/><path d="M5.292 8.467c0-.53-2.646-.53-2.646 0 0 0-1.002 8.738 0 10.054 1.068 1.403 4.671-.648 5.292 0 .697.729 0 5.291 0 5.291"/><path d="M9.525 23.812s1.887-6.901 1.058-7.938c-.487-.61-5.291 0-5.291 0M5.292 8.467s-.078 3.356.529 3.704c.88.504 4.762 0 4.762 0 .514.662.625 1.411 0 2.117"/><g transform="matrix(-1 0 0 1 26.02 0)"><circle cx="3.896" cy="4.461" r="2.646"/><path d="M5.292 8.467c0-.53-2.646-.53-2.646 0 0 0-1.002 8.738 0 10.054 1.068 1.403 4.671-.648 5.292 0 .697.729 0 5.291 0 5.291"/><path d="M9.525 23.812s1.887-6.901 1.058-7.938c-.487-.61-5.291 0-5.291 0M5.292 8.467s-.078 3.356.529 3.704c.88.504 4.762 0 4.762 0 .514.662.625 1.411 0 2.117"/></g></g><path fill="none" stroke="#000" stroke-width=".529" d="M4.233 12.7c-.008 1.64.115 2.2 3.705 2.117H18.52c3.516.03 3.748-.78 3.705-2.117"/></svg>