<svg xmlns="http://www.w3.org/2000/svg" width="100" height="100" viewBox="0 0 26.458 26.458"><g fill="none" stroke="#000" stroke-width=".529" transform="translate(2.063)"><path d="M13.852 10.715v12.171c0 1.059-2.646 1.059-2.646 0v-6.879M8.56 10.715v12.171c0 1.059 2.646 1.059 2.646 0v-6.879"/><path d="M8.56 17.595c-1.683-.032-1.64-2.606-1.587-3.969v-2.91C6.973 8.07 8.56 8.07 8.56 8.07l2.646 1.058 2.646-1.058s1.588 0 1.588 2.646v2.91c.014 1.994-.02 3.899-1.588 3.969"/><circle cx="11.206" cy="5.424" r="2.646"/></g><g style="fill:none;stroke:#000;stroke-width:.52917" transform="translate(10.143 2.186) scale(.85685)"><path d="M13.852 10.715v12.171c0 1.059-2.646 1.059-2.646 0v-6.879M8.56 10.715v12.171c0 1.059 2.646 1.059 2.646 0v-6.879"/><path d="m8.56 8.07 2.646 1.058 2.646-1.058s1.588 0 1.588 2.646v2.91c.014 1.994-.02 3.899-1.588 3.969"/><circle cx="11.206" cy="5.424" r="2.646"/></g><g style="fill:none;stroke:#000;stroke-width:.52917" transform="translate(-2.822 2.186) scale(.85685)"><path d="M13.852 10.715v12.171c0 1.059-2.646 1.059-2.646 0v-6.879M8.56 10.715v12.171c0 1.059 2.646 1.059 2.646 0v-6.879"/><path d="M8.56 17.595c-1.683-.032-1.64-2.606-1.587-3.969v-2.91C6.973 8.07 8.56 8.07 8.56 8.07l2.646 1.058 2.646-1.058"/><circle cx="11.206" cy="5.424" r="2.646"/></g></svg>