<svg xmlns="http://www.w3.org/2000/svg" width="100" height="100" viewBox="0 0 26.458 26.458"><defs><clipPath id="a"><path fill="#ececec" d="M14.654 1.59h23.758v23.758H14.654zm6.322 5.28-8.354 5.155 11.657 10.098-.194-7.603-1.087-4.702z" class="powerclip"/></clipPath></defs><g fill="none" stroke="#000"><circle cx="15.485" cy="14.618" r=".265" stroke="none" style="fill:#000;fill-opacity:1;stroke:none;stroke-width:.345485"/><circle cx="15.485" cy="3.506" r=".265" stroke="none" style="fill:#000;fill-opacity:1;stroke:none;stroke-width:.345485"/><circle cx="21.166" cy="9.071" r=".265" stroke="none" style="fill:#000;fill-opacity:1;stroke:none;stroke-width:.345485"/><g stroke-width=".529" style="display:inline" transform="translate(-2.594 .322)"><path d="M13.852 10.715v12.171c0 1.059-2.646 1.059-2.646 0v-6.879M8.56 10.715v12.171c0 1.059 2.646 1.059 2.646 0v-6.879"/><path d="M8.56 17.595c-1.683-.032-1.64-2.606-1.587-3.969v-2.91C6.973 8.07 8.56 8.07 8.56 8.07l2.646 1.058 2.646-1.058s1.588 0 1.588 2.646v2.91c.014 1.994-.02 3.899-1.588 3.969"/><circle cx="11.206" cy="5.424" r="2.646"/></g><g clip-path="url(#a)" transform="translate(-11.05 -4.398)"><path stroke-width=".529" d="M33.149 13.469a6.615 6.615 0 0 1-6.615 6.614 6.615 6.615 0 0 1-6.614-6.614 6.615 6.615 0 0 1 6.614-6.615 6.615 6.615 0 0 1 6.615 6.615zM26.458 13.469l1.99-4.903" style="display:inline"/><path stroke-width=".572" d="m28.931 15.46-2.473-1.991" style="display:inline"/></g></g></svg>