<svg xmlns="http://www.w3.org/2000/svg" width="100" height="100" viewBox="0 0 26.458 26.458"><g fill="none" stroke="#000" stroke-width=".529" transform="translate(-2.023 .132)"><path d="M15.875 10.583v12.171c0 1.058-2.646 1.058-2.646 0v-6.88M10.583 10.583v12.171c0 1.058 2.646 1.058 2.646 0v-6.88"/><path d="M10.583 17.462c-1.683-.032-1.641-2.606-1.587-3.969v-2.91c0-2.646 1.587-2.646 1.587-2.646l2.646 1.058 2.646-1.058s1.587 0 1.587 2.646v2.91c.015 1.994-.02 3.899-1.587 3.969"/><circle cx="13.229" cy="5.292" r="2.646"/><path d="M17.489 6.134c0-1.863 2.593-1.863 2.593 0v.745H17.49z"/><path d="M17.436 6.842h2.698v.634h-2.698z"/><path d="M17.489 8.09c0 1.863 2.593 1.863 2.593 0v-.745H17.49z"/><path d="M17.078 7.38v.98c0 2.454 3.415 2.454 3.415 0v-.98"/><path d="M18.52 10.054v12.202l-2.645 1.027h5.82l-2.645-1.027V10.054z"/></g></svg>