<svg xmlns="http://www.w3.org/2000/svg" width="100" height="100" viewBox="0 0 26.458 26.458"><g fill="none" stroke="#000" stroke-width=".529" transform="translate(-1.745 -.053)"><path d="M8.56 10.716v12.171c0 1.058 2.646 1.058 2.646 0v-6.88M13.852 10.716v12.171c0 1.058-2.646 1.058-2.646 0v-6.88"/><path d="M8.56 17.595c-1.683-.032-1.64-2.606-1.587-3.969v-2.91C6.973 8.07 8.56 8.07 8.56 8.07l2.646 1.058 2.646-1.058s1.588 0 1.588 2.646v2.91c.014 1.994-.02 3.899-1.588 3.969"/><circle cx="11.206" cy="5.424" r="2.646"/><path d="M5.292 23.812h18.52s.624-2.022 0-2.646c-1.87-1.87-6.066 1.871-7.937 0-.623-.623-.623-2.022 0-2.646 1.871-1.87 6.067 1.871 7.938 0 1.247-1.247.242-2.666-.63-3.437-1.167-1.03-3.554.826-4.662-.267-.658-.648-.856-2.117-.197-2.765.737-.725 2.413 1.055 3.091.273.747-.86-.777-3.329-.777-3.329"/></g><path stroke-width=".385" d="M19.957 6.926h.712v.89h-.712zm.69-.516h-.669v-.54q0-.354.098-.582.098-.228.414-.53l.315-.311q.2-.186.288-.35.091-.166.091-.337 0-.312-.231-.505-.228-.193-.607-.193-.277 0-.592.123-.312.122-.652.357v-.659q.33-.2.666-.298.34-.098.7-.098.646 0 1.035.34.393.34.393.898 0 .266-.126.508-.127.238-.442.54l-.309.301q-.165.165-.235.26-.066.091-.094.179-.021.073-.032.178-.01.106-.01.288z" aria-label="?" style="font-variant-caps:normal;font-variant-east-asian:normal;font-variant-ligatures:normal;font-variant-numeric:normal" transform="translate(-1.745 -.053)"/></svg>