<svg xmlns="http://www.w3.org/2000/svg" width="100" height="100" viewBox="0 0 26.458 26.458"><defs><clipPath id="a"><path fill="#ececec" stroke-width=".529" d="M1.69-2.486h19.017v31.43H1.69zM5.743 12.81v12.444h11.3V12.81z" class="powerclip"/></clipPath></defs><g fill="none" stroke="#000" stroke-width=".529"><path d="M1.197 17.773h12.58M22.223 17.773h3.25"/><g clip-path="url(#a)" transform="translate(-3.704 4.763)"><path d="M13.852 10.715v12.171c0 1.059-2.646 1.059-2.646 0v-6.879M8.56 10.715v12.171c0 1.059 2.646 1.059 2.646 0v-6.879"/><path d="M8.56 17.595c-1.683-.032-1.64-2.606-1.587-3.969v-2.91C6.973 8.07 8.56 8.07 8.56 8.07l2.646 1.058 2.646-1.058s1.588 0 1.588 2.646v2.91c.014 1.994-.02 3.899-1.588 3.969"/><circle cx="11.206" cy="5.424" r="2.646"/></g><path d="M13.758 21.468v-2.91c0-2.646 1.587-2.646 1.587-2.646h5.292s1.588 0 1.588 2.646v2.91"/><circle cx="17.945" cy="12.636" r="2.646"/></g></svg>