<svg xmlns="http://www.w3.org/2000/svg" width="100" height="100" viewBox="0 0 26.458 26.458"><defs><clipPath id="a"><path fill="#ececec" stroke-width=".529" d="M1.69-2.486h19.017v31.43H1.69zM5.743 12.81v12.444h11.3V12.81z" class="powerclip"/></clipPath></defs><g fill="none" stroke="#000" stroke-width=".529" clip-path="url(#a)" transform="translate(2.031 5.292)"><path d="M13.852 10.715v12.171c0 1.059-2.646 1.059-2.646 0v-6.879M8.56 10.715v12.171c0 1.059 2.646 1.059 2.646 0v-6.879"/><path d="M8.56 17.595c-1.683-.032-1.64-2.606-1.587-3.969v-2.91C6.973 8.07 8.56 8.07 8.56 8.07l2.646 1.058 2.646-1.058s1.588 0 1.588 2.646v2.91c.014 1.994-.02 3.899-1.588 3.969"/><circle cx="11.206" cy="5.424" r="2.646"/></g><g fill="none" stroke="#000" stroke-width=".529"><circle cx="13.229" cy="3.969" r="1.323"/><circle cx="13.229" cy="22.49" r="1.323"/><g transform="rotate(-90 13.229 13.229)"><circle cx="13.229" cy="3.969" r="1.323"/><circle cx="13.229" cy="22.49" r="1.323"/></g></g></svg>