<svg xmlns="http://www.w3.org/2000/svg" width="100" height="100" viewBox="0 0 26.458 26.458"><g fill="none" stroke="#000" stroke-width=".529"><g transform="translate(-2.966 .114)"><path d="M13.852 10.715v12.171c0 1.059-2.646 1.059-2.646 0v-6.879M8.56 10.715v12.171c0 1.059 2.646 1.059 2.646 0v-6.879"/><path d="M8.56 17.595c-1.683-.032-1.64-2.606-1.587-3.969v-2.91C6.973 8.07 8.56 8.07 8.56 8.07l2.646 1.058 2.646-1.058s1.588 0 1.588 2.646v2.91c.014 1.994-.02 3.899-1.588 3.969"/><circle cx="11.206" cy="5.424" r="2.646"/></g><path d="M11.906 22.225h2.646M11.245 21.167h3.969M10.583 20.108h5.292" transform="matrix(.99797 0 0 1.0849 1.91 -4.43)"/><path d="M1.91-13.682a5.29 5.29 0 0 1-4.155-8.304 5.292 5.292 0 0 1 6.061-1.991" transform="matrix(-.63881 .83351 -.76672 -.69446 1.91 -4.43)"/><path d="m10.564 18.963.388 1.283M16.112 18.125l-.65 2.152" transform="matrix(.99797 0 0 1.0849 1.91 -4.43)"/><path d="M15.16 3.79V2.4M21.344 10.503h1.39M19.96 5.703l.983-.983M19.43 15.303l.984.983"/></g></svg>