<svg xmlns="http://www.w3.org/2000/svg" width="100" height="100" viewBox="0 0 26.458 26.458"><g stroke="#000"><g fill="none" stroke-width=".529"><g transform="translate(-4.286 3.174) scale(.73225)"><circle cx="11.642" cy="5.821" r="2.646"/><path d="M11.377 8.996c-.253 2.398-.994 4.381-.507 6.945l2.415 3.87c-.117 1.845-1.314 2.878-1.715 3.993-.236.657 1.617.635 1.924.008.669-1.367 1.596-2.893 1.606-3.943.01-.944-1.802-3.768-1.802-3.768s-.543-2.61-.345-3.898c.095-.618.831.925 1.704 1.645.858.708 1.483 1.155 2.665 2.006.416.299 1.13-.975.693-1.243-1.09-.67-1.662-1.12-2.355-1.836-1.117-1.154-2.837-3.895-2.837-3.895-.522-.185-.988.037-1.446.116z"/><path d="m10.871 15.941-.1 3.89s-1.443 2.758-2.492 4.025c-.404.487 1.595.52 1.896-.036.683-1.261 1.639-2.46 2.14-3.834.155-.427.255-1.34.255-1.34zM13.2 12.153l-.749-.882"/></g><g transform="translate(-.062 3.174) scale(.73225)"><circle cx="11.642" cy="5.821" r="2.646"/><path d="M10.776 15.335c.024.199.055.4.095.606l2.414 3.87c-.117 1.846-1.314 2.879-1.715 3.993-.236.657 1.617.636 1.924.009.669-1.367 1.596-2.893 1.606-3.943.01-.945-1.802-3.768-1.802-3.768s-.021-.102-.054-.277m-.189-1.16c-.112-.82-.202-1.81-.101-2.461.095-.618.83.924 1.703 1.645.858.707 1.483 1.155 2.665 2.005.416.3 1.13-.974.693-1.243-1.09-.67-1.662-1.12-2.354-1.835-1.117-1.154-2.838-3.895-2.838-3.895-.522-.185-.988.036-1.446.115-.165 1.562-.537 2.947-.641 4.432"/><path d="m10.871 15.941-.1 3.89s-1.443 2.758-2.492 4.025c-.404.487 1.595.52 1.896-.036.683-1.261 1.639-2.46 2.14-3.834.155-.427.255-1.34.255-1.34zM13.2 12.153l-.749-.882"/></g><g transform="translate(4.163 3.174) scale(.73225)"><circle cx="11.642" cy="5.821" r="2.646"/><path d="M10.774 15.317c.024.204.056.412.097.624l2.414 3.87c-.117 1.845-1.314 2.878-1.714 3.993-.236.657 1.616.635 1.923.008.669-1.367 1.596-2.893 1.607-3.943.01-.945-1.803-3.768-1.803-3.768s-.023-.109-.057-.294m-.183-1.128c-.114-.822-.205-1.82-.104-2.476.095-.618.83.925 1.703 1.645.858.708 1.483 1.155 2.665 2.006.416.299 1.13-.975.693-1.243-1.09-.67-1.662-1.12-2.354-1.836-1.117-1.154-2.837-3.895-2.837-3.895-.523-.185-.99.037-1.447.116-.168 1.586-.548 2.99-.646 4.502"/><path d="m10.871 15.941-.1 3.89s-1.443 2.758-2.492 4.025c-.404.487 1.595.52 1.896-.036.683-1.261 1.639-2.46 2.14-3.834.155-.427.255-1.34.255-1.34zM13.2 12.153l-.749-.882"/></g></g><g fill="none" stroke-width=".265"><path d="M8.925 13.926h2.374m1.866 0h2.298m1.945 0h7.506m0 .81H6.43l.043-.81h.601M24.207 13.94l-.892.813M24.207 13.94l-.892.813M23.148 13.94l-.892.813M22.09 13.94l-.892.813M21.032 13.94l-.892.813M19.973 13.94l-.892.813M18.915 13.94l-.892.813M17.857 13.94l-.38.418M16.192 14.44l-.285.313M15.74 13.94l-.892.813M14.682 13.94l-.892.813M13.623 13.94l-.423.367M11.955 14.476l-.282.277M11.507 13.94l-.892.813M10.448 13.94l-.892.813M9.39 13.94l-.378.377M7.711 14.55l-.271.203M7.273 13.94l-.892.813M7.273 13.94l-.892.813"/></g><g fill="none" stroke-width=".265"><path d="m5.146 12.855 1.326 1.07M9.396 12.88l1.052 1.06M13.616 12.864l1.066 1.077"/></g><path stroke-width=".265" d="m21.576 14.245.498-.18-.608 3.385-.725-.13z"/><path stroke-width=".265" d="m22.074 14.104-.514-.125.97 3.299.707-.208z"/></g></svg>