<svg xmlns="http://www.w3.org/2000/svg" width="100" height="100" viewBox="0 0 26.458 26.458"><defs><clipPath id="a"><path stroke="#000" stroke-width=".37" d="M7.965-.502h20.054v18.996H7.965zm2.805 8.43.449 1.132 2.608-1.034-.45-1.132z" class="powerclip"/></clipPath></defs><g fill="none" stroke="#000" stroke-width=".529" transform="translate(.227)"><path d="M10.148 10.715v12.171c0 1.059-2.646 1.059-2.646 0v-6.879M4.856 10.715v12.171c0 1.059 2.646 1.059 2.646 0v-6.879"/><path d="M4.856 17.595c-1.683-.032-1.641-2.606-1.587-3.969v-2.91c0-2.646 1.587-2.646 1.587-2.646l2.646 1.058 3.081-1.19s5.43-2.113 5.525-.5c-.618.99-6.278 1.022-5.954 3.33"/><circle cx="7.502" cy="5.424" r="2.646"/></g><g stroke-width="0"><path d="M15.044 8.996h1.323v2.646h-1.323zM17.425 7.673h1.323v3.969h-1.323ZM19.807 6.35h1.323v5.292h-1.323z"/></g><path fill="none" stroke="#000" stroke-width=".529" d="M13.229 4.763v8.466h9.525V4.763Z" clip-path="url(#a)" transform="translate(.227)"/></svg>